<svg width="1089" height="454" viewBox="0 0 1089 454" fill="none" xmlns="http://www.w3.org/2000/svg">
<mask id="path-1-inside-1_1_579" fill="white">
<path fill-rule="evenodd" clip-rule="evenodd" d="M754.764 141.727C744.66 116.785 720.016 102.126 696.649 108.387C681.187 112.53 669.821 124.886 664.978 140.494C654.491 134.868 641.652 133.097 628.916 136.51C622.161 138.32 616.109 141.408 610.98 145.418C604.533 144.509 597.749 144.861 590.994 146.671C567.782 152.891 552.882 174.192 555.147 196.175C554.97 196.22 554.794 196.266 554.618 196.313C529.019 203.172 513.531 228.374 520.023 252.602C520.547 254.559 521.199 256.45 521.967 258.269C511.309 252.017 498.344 249.862 485.581 253.282C459.983 260.141 444.893 286.83 451.877 312.894C453.183 317.769 455.169 322.277 457.703 326.34C457.007 326.496 456.312 326.666 455.617 326.853C430.019 333.712 414.53 358.913 421.022 383.141C424.946 397.787 436.004 408.725 449.791 413.571C453.458 420.64 458.967 426.461 465.605 430.647C465.141 433.165 465.204 435.668 465.855 438.096C469.789 452.779 493.73 459.123 519.328 452.264C527.676 450.027 535.168 446.663 541.34 442.635C589.253 488.533 686.332 504.404 787.94 477.178C893.812 448.81 972.03 382.379 986.258 315.937C989.871 315.78 993.532 315.228 997.186 314.249C1022.78 307.39 1038.27 282.188 1031.78 257.96C1027.37 241.483 1013.92 229.7 997.721 226.003C998.24 220.895 997.861 215.64 996.465 210.429C989.973 186.201 963.958 172.12 938.36 178.979C938.105 179.047 937.851 179.118 937.598 179.19C928.166 159.828 905.115 149.417 882.393 155.505C873.988 157.757 866.672 161.987 860.867 167.511C860.647 165.076 860.216 162.632 859.564 160.198C853.072 135.969 827.058 121.888 801.46 128.747C791.524 131.41 783.112 136.835 776.916 143.894C770.015 141.555 762.449 140.734 754.764 141.727Z"/>
</mask>
<path fill-rule="evenodd" clip-rule="evenodd" d="M754.764 141.727C744.66 116.785 720.016 102.126 696.649 108.387C681.187 112.53 669.821 124.886 664.978 140.494C654.491 134.868 641.652 133.097 628.916 136.51C622.161 138.32 616.109 141.408 610.98 145.418C604.533 144.509 597.749 144.861 590.994 146.671C567.782 152.891 552.882 174.192 555.147 196.175C554.97 196.22 554.794 196.266 554.618 196.313C529.019 203.172 513.531 228.374 520.023 252.602C520.547 254.559 521.199 256.45 521.967 258.269C511.309 252.017 498.344 249.862 485.581 253.282C459.983 260.141 444.893 286.83 451.877 312.894C453.183 317.769 455.169 322.277 457.703 326.34C457.007 326.496 456.312 326.666 455.617 326.853C430.019 333.712 414.53 358.913 421.022 383.141C424.946 397.787 436.004 408.725 449.791 413.571C453.458 420.64 458.967 426.461 465.605 430.647C465.141 433.165 465.204 435.668 465.855 438.096C469.789 452.779 493.73 459.123 519.328 452.264C527.676 450.027 535.168 446.663 541.34 442.635C589.253 488.533 686.332 504.404 787.94 477.178C893.812 448.81 972.03 382.379 986.258 315.937C989.871 315.78 993.532 315.228 997.186 314.249C1022.78 307.39 1038.27 282.188 1031.78 257.96C1027.37 241.483 1013.92 229.7 997.721 226.003C998.24 220.895 997.861 215.64 996.465 210.429C989.973 186.201 963.958 172.12 938.36 178.979C938.105 179.047 937.851 179.118 937.598 179.19C928.166 159.828 905.115 149.417 882.393 155.505C873.988 157.757 866.672 161.987 860.867 167.511C860.647 165.076 860.216 162.632 859.564 160.198C853.072 135.969 827.058 121.888 801.46 128.747C791.524 131.41 783.112 136.835 776.916 143.894C770.015 141.555 762.449 140.734 754.764 141.727Z" fill="#8F9DD6"/>
<path d="M754.764 141.727L751.984 142.853L752.853 144.999L755.149 144.702L754.764 141.727ZM664.978 140.494L663.56 143.137L666.765 144.857L667.843 141.383L664.978 140.494ZM610.98 145.418L610.562 148.388L611.824 148.566L612.828 147.781L610.98 145.418ZM555.147 196.175L555.892 199.08L558.396 198.438L558.131 195.867L555.147 196.175ZM521.967 258.269L520.45 260.856L528.251 265.432L524.731 257.101L521.967 258.269ZM457.703 326.34L458.358 329.268L462.487 328.343L460.248 324.753L457.703 326.34ZM449.791 413.571L452.454 412.189L451.907 411.135L450.786 410.741L449.791 413.571ZM465.605 430.647L468.555 431.19L468.923 429.193L467.205 428.109L465.605 430.647ZM541.34 442.635L543.415 440.469L541.695 438.821L539.7 440.123L541.34 442.635ZM986.258 315.937L986.128 312.94L983.81 313.041L983.325 315.309L986.258 315.937ZM997.721 226.003L994.737 225.7L994.469 228.338L997.054 228.928L997.721 226.003ZM937.598 179.19L934.901 180.503L936.002 182.762L938.419 182.075L937.598 179.19ZM860.867 167.511L857.88 167.781L858.439 173.962L862.935 169.684L860.867 167.511ZM776.916 143.894L775.953 146.736L777.85 147.379L779.171 145.873L776.916 143.894ZM697.426 111.285C719.015 105.5 742.317 118.99 751.984 142.853L757.545 140.6C747.004 114.58 721.018 98.7516 695.873 105.489L697.426 111.285ZM667.843 141.383C672.431 126.598 683.111 115.12 697.426 111.285L695.873 105.489C679.263 109.94 667.211 123.174 662.113 139.605L667.843 141.383ZM629.692 139.408C641.684 136.195 653.739 137.869 663.56 143.137L666.396 137.85C655.244 131.868 641.621 130 628.14 133.612L629.692 139.408ZM612.828 147.781C617.643 144.017 623.33 141.113 629.692 139.408L628.14 133.612C620.991 135.528 614.576 138.799 609.132 143.054L612.828 147.781ZM591.77 149.569C598.132 147.864 604.51 147.536 610.562 148.388L611.399 142.447C604.557 141.483 597.366 141.858 590.217 143.774L591.77 149.569ZM558.131 195.867C556.027 175.447 569.885 155.433 591.77 149.569L590.217 143.774C565.678 150.349 549.737 172.938 552.162 196.482L558.131 195.867ZM555.394 199.211C555.56 199.167 555.726 199.123 555.892 199.08L554.401 193.269C554.214 193.317 554.028 193.366 553.841 193.415L555.394 199.211ZM522.921 251.826C516.897 229.346 531.244 205.682 555.394 199.211L553.841 193.415C526.795 200.663 510.165 227.402 517.125 253.379L522.921 251.826ZM524.731 257.101C524.016 255.409 523.409 253.649 522.921 251.826L517.125 253.379C517.685 255.469 518.382 257.491 519.204 259.436L524.731 257.101ZM486.358 256.18C498.306 252.978 510.448 254.99 520.45 260.856L523.485 255.681C512.17 249.044 498.382 246.746 484.805 250.384L486.358 256.18ZM454.775 312.118C448.206 287.605 462.409 262.597 486.358 256.18L484.805 250.384C457.557 257.685 441.58 286.056 448.979 313.671L454.775 312.118ZM460.248 324.753C457.87 320.939 456.004 316.704 454.775 312.118L448.979 313.671C450.363 318.835 452.468 323.616 455.157 327.927L460.248 324.753ZM456.394 329.75C457.048 329.575 457.703 329.414 458.358 329.268L457.048 323.412C456.312 323.577 455.576 323.758 454.841 323.955L456.394 329.75ZM423.92 382.365C417.896 359.885 432.243 336.221 456.394 329.75L454.841 323.955C427.794 331.202 411.164 357.941 418.124 383.918L423.92 382.365ZM450.786 410.741C437.85 406.194 427.566 395.972 423.92 382.365L418.124 383.918C422.327 399.602 434.158 411.256 448.796 416.401L450.786 410.741ZM467.205 428.109C460.995 424.193 455.864 418.762 452.454 412.189L447.128 414.952C451.053 422.518 456.939 428.728 464.004 433.184L467.205 428.109ZM468.752 437.319C468.226 435.355 468.166 433.305 468.555 431.19L462.654 430.104C462.117 433.026 462.182 435.982 462.957 438.872L468.752 437.319ZM518.552 449.366C506.166 452.685 494.321 452.765 485.236 450.358C476.059 447.927 470.322 443.178 468.752 437.319L462.957 438.872C465.322 447.697 473.523 453.462 483.699 456.158C493.968 458.879 506.893 458.702 520.105 455.162L518.552 449.366ZM539.7 440.123C533.812 443.966 526.614 447.206 518.552 449.366L520.105 455.162C528.738 452.848 536.525 449.36 542.979 445.147L539.7 440.123ZM787.163 474.28C686.058 501.371 590.255 485.339 543.415 440.469L539.264 444.801C588.252 491.728 686.605 507.436 788.716 480.076L787.163 474.28ZM983.325 315.309C976.397 347.658 953.796 380.331 919.559 408.519C885.355 436.679 839.727 460.195 787.163 474.28L788.716 480.076C842.024 465.792 888.442 441.909 923.372 413.151C958.269 384.421 981.891 350.658 989.192 316.565L983.325 315.309ZM996.409 311.351C992.968 312.273 989.523 312.792 986.128 312.94L986.388 318.934C990.218 318.768 994.097 318.182 997.962 317.146L996.409 311.351ZM1028.88 258.736C1034.91 281.216 1020.56 304.88 996.409 311.351L997.962 317.146C1025.01 309.899 1041.64 283.16 1034.68 257.183L1028.88 258.736ZM997.054 228.928C1012.28 232.401 1024.78 243.433 1028.88 258.736L1034.68 257.183C1029.95 239.533 1015.57 226.998 998.389 223.078L997.054 228.928ZM993.567 211.206C994.867 216.057 995.219 220.946 994.737 225.7L1000.71 226.306C1001.26 220.844 1000.85 215.222 999.362 209.653L993.567 211.206ZM939.137 181.877C963.287 175.406 987.543 188.726 993.567 211.206L999.362 209.653C992.402 183.676 964.63 168.834 937.584 176.081L939.137 181.877ZM938.419 182.075C938.657 182.007 938.896 181.941 939.137 181.877L937.584 176.081C937.314 176.154 937.045 176.228 936.778 176.304L938.419 182.075ZM883.169 158.403C904.59 152.663 926.136 162.511 934.901 180.503L940.295 177.876C930.195 157.144 905.641 146.17 881.616 152.608L883.169 158.403ZM862.935 169.684C868.382 164.502 875.254 160.524 883.169 158.403L881.616 152.608C872.721 154.991 864.963 159.473 858.799 165.337L862.935 169.684ZM856.666 160.974C857.274 163.242 857.674 165.517 857.88 167.781L863.855 167.24C863.619 164.636 863.159 162.022 862.462 159.421L856.666 160.974ZM802.236 131.645C826.386 125.174 850.643 138.494 856.666 160.974L862.462 159.421C855.501 133.444 827.73 118.603 800.683 125.85L802.236 131.645ZM779.171 145.873C784.98 139.254 792.881 134.152 802.236 131.645L800.683 125.85C790.167 128.667 781.243 134.417 774.661 141.916L779.171 145.873ZM755.149 144.702C762.376 143.768 769.481 144.541 775.953 146.736L777.879 141.053C770.549 138.568 762.523 137.699 754.38 138.751L755.149 144.702Z" fill="black" mask="url(#path-1-inside-1_1_579)"/>
<mask id="path-3-inside-2_1_579" fill="white">
<path fill-rule="evenodd" clip-rule="evenodd" d="M913.903 218.771C903.799 193.829 879.155 179.17 855.788 185.431C840.326 189.574 828.959 201.93 824.116 217.538C813.63 211.912 800.791 210.141 788.055 213.554C781.299 215.364 775.248 218.452 770.119 222.462C763.672 221.553 756.888 221.905 750.132 223.715C726.92 229.935 712.021 251.237 714.285 273.219C714.109 273.264 713.933 273.31 713.756 273.358C688.158 280.217 672.669 305.418 679.161 329.646C679.585 331.226 680.091 332.762 680.674 334.252C670.208 328.672 657.413 326.925 644.72 330.326C619.122 337.185 603.633 362.386 610.125 386.615C611.784 392.807 614.719 398.337 618.596 403.024C617.317 403.263 616.036 403.554 614.756 403.897C589.158 410.756 573.669 435.957 580.161 460.186C584.085 474.831 595.143 485.769 608.93 490.615C612.597 497.684 618.105 503.505 624.743 507.691C624.28 510.21 624.343 512.713 624.993 515.14C628.928 529.823 652.869 536.167 678.467 529.308C686.814 527.071 694.307 523.707 700.478 519.679C748.392 565.577 845.47 581.448 947.078 554.222C1052.95 525.854 1131.17 459.423 1145.4 392.981C1149.01 392.824 1152.67 392.272 1156.32 391.293C1181.92 384.434 1197.41 359.232 1190.92 335.004C1186.5 318.527 1173.06 306.744 1156.86 303.047C1157.38 297.939 1157 292.684 1155.6 287.474C1149.11 263.245 1123.1 249.165 1097.5 256.024C1097.24 256.092 1096.99 256.162 1096.74 256.234C1087.3 236.872 1064.25 226.461 1041.53 232.55C1033.13 234.802 1025.81 239.031 1020.01 244.555C1019.79 242.121 1019.36 239.676 1018.7 237.242C1012.21 213.013 986.196 198.933 960.598 205.792C950.663 208.454 942.25 213.879 936.055 220.939C929.153 218.599 921.588 217.778 913.903 218.771ZM664.555 419.139C664.5 419.072 664.444 419.005 664.389 418.938C665.669 418.698 666.95 418.408 668.229 418.065C670.689 417.406 673.056 416.577 675.319 415.597C675.212 415.913 675.108 416.229 675.004 416.546C672.768 416.95 670.505 417.455 668.23 418.065C666.985 418.399 665.76 418.757 664.555 419.139Z"/>
</mask>
<path fill-rule="evenodd" clip-rule="evenodd" d="M913.903 218.771C903.799 193.829 879.155 179.17 855.788 185.431C840.326 189.574 828.959 201.93 824.116 217.538C813.63 211.912 800.791 210.141 788.055 213.554C781.299 215.364 775.248 218.452 770.119 222.462C763.672 221.553 756.888 221.905 750.132 223.715C726.92 229.935 712.021 251.237 714.285 273.219C714.109 273.264 713.933 273.31 713.756 273.358C688.158 280.217 672.669 305.418 679.161 329.646C679.585 331.226 680.091 332.762 680.674 334.252C670.208 328.672 657.413 326.925 644.72 330.326C619.122 337.185 603.633 362.386 610.125 386.615C611.784 392.807 614.719 398.337 618.596 403.024C617.317 403.263 616.036 403.554 614.756 403.897C589.158 410.756 573.669 435.957 580.161 460.186C584.085 474.831 595.143 485.769 608.93 490.615C612.597 497.684 618.105 503.505 624.743 507.691C624.28 510.21 624.343 512.713 624.993 515.14C628.928 529.823 652.869 536.167 678.467 529.308C686.814 527.071 694.307 523.707 700.478 519.679C748.392 565.577 845.47 581.448 947.078 554.222C1052.95 525.854 1131.17 459.423 1145.4 392.981C1149.01 392.824 1152.67 392.272 1156.32 391.293C1181.92 384.434 1197.41 359.232 1190.92 335.004C1186.5 318.527 1173.06 306.744 1156.86 303.047C1157.38 297.939 1157 292.684 1155.6 287.474C1149.11 263.245 1123.1 249.165 1097.5 256.024C1097.24 256.092 1096.99 256.162 1096.74 256.234C1087.3 236.872 1064.25 226.461 1041.53 232.55C1033.13 234.802 1025.81 239.031 1020.01 244.555C1019.79 242.121 1019.36 239.676 1018.7 237.242C1012.21 213.013 986.196 198.933 960.598 205.792C950.663 208.454 942.25 213.879 936.055 220.939C929.153 218.599 921.588 217.778 913.903 218.771ZM664.555 419.139C664.5 419.072 664.444 419.005 664.389 418.938C665.669 418.698 666.95 418.408 668.229 418.065C670.689 417.406 673.056 416.577 675.319 415.597C675.212 415.913 675.108 416.229 675.004 416.546C672.768 416.95 670.505 417.455 668.23 418.065C666.985 418.399 665.76 418.757 664.555 419.139Z" fill="#8F9DD6"/>
<path d="M913.903 218.771L911.123 219.897L911.992 222.043L914.287 221.746L913.903 218.771ZM824.116 217.538L822.698 220.181L825.904 221.901L826.982 218.427L824.116 217.538ZM770.119 222.462L769.7 225.432L770.962 225.61L771.967 224.825L770.119 222.462ZM714.285 273.219L715.031 276.125L717.534 275.482L717.269 272.911L714.285 273.219ZM680.674 334.252L679.263 336.899L686.429 340.72L683.468 333.158L680.674 334.252ZM618.596 403.024L619.148 405.972L624.154 405.035L620.908 401.111L618.596 403.024ZM608.93 490.615L611.593 489.234L611.046 488.179L609.924 487.785L608.93 490.615ZM624.743 507.691L627.694 508.234L628.061 506.237L626.344 505.154L624.743 507.691ZM700.478 519.679L702.554 517.513L700.833 515.865L698.839 517.167L700.478 519.679ZM1145.4 392.981L1145.27 389.984L1142.95 390.085L1142.46 392.353L1145.4 392.981ZM1156.86 303.047L1153.88 302.744L1153.61 305.382L1156.19 305.972L1156.86 303.047ZM1096.74 256.234L1094.04 257.548L1095.14 259.807L1097.56 259.12L1096.74 256.234ZM1020.01 244.555L1017.02 244.826L1017.58 251.006L1022.07 246.728L1020.01 244.555ZM936.055 220.939L935.091 223.78L936.988 224.423L938.31 222.918L936.055 220.939ZM664.389 418.938L663.837 415.989L658.831 416.927L662.078 420.85L664.389 418.938ZM664.555 419.139L662.232 421.038L663.52 422.614L665.461 421.999L664.555 419.139ZM675.319 415.597L678.163 416.551L680.307 410.165L674.125 412.844L675.319 415.597ZM675.004 416.546L675.538 419.498L677.3 419.179L677.856 417.477L675.004 416.546ZM856.564 188.329C878.153 182.544 901.455 196.034 911.123 219.897L916.684 217.645C906.143 191.625 880.157 175.796 855.011 182.534L856.564 188.329ZM826.982 218.427C831.569 203.642 842.25 192.165 856.564 188.329L855.011 182.534C838.401 186.984 826.349 200.219 821.251 216.649L826.982 218.427ZM788.831 216.452C800.822 213.239 812.877 214.913 822.698 220.181L825.535 214.894C814.383 208.912 800.759 207.044 787.278 210.656L788.831 216.452ZM771.967 224.825C776.781 221.061 782.469 218.157 788.831 216.452L787.278 210.656C780.129 212.572 773.714 215.843 768.271 220.098L771.967 224.825ZM750.909 226.613C757.271 224.908 763.648 224.58 769.7 225.432L770.537 219.491C763.695 218.527 756.505 218.902 749.356 220.818L750.909 226.613ZM717.269 272.911C715.166 252.491 729.024 232.477 750.909 226.613L749.356 220.818C724.816 227.393 708.876 249.982 711.301 273.526L717.269 272.911ZM714.533 276.255C714.699 276.211 714.865 276.167 715.031 276.125L713.539 270.313C713.353 270.361 713.166 270.41 712.98 270.46L714.533 276.255ZM682.059 328.87C676.036 306.39 690.383 282.726 714.533 276.255L712.98 270.46C685.933 277.707 669.303 304.446 676.264 330.423L682.059 328.87ZM683.468 333.158C682.925 331.772 682.454 330.341 682.059 328.87L676.264 330.423C676.716 332.11 677.257 333.752 677.881 335.346L683.468 333.158ZM645.496 333.224C657.447 330.021 669.46 331.673 679.263 336.899L682.086 331.605C670.955 325.671 657.379 323.828 643.943 327.428L645.496 333.224ZM613.023 385.838C606.999 363.358 621.346 339.695 645.496 333.224L643.943 327.428C616.897 334.675 600.267 361.414 607.227 387.391L613.023 385.838ZM620.908 401.111C617.298 396.747 614.567 391.603 613.023 385.838L607.227 387.391C609.001 394.012 612.141 399.927 616.285 404.936L620.908 401.111ZM615.532 406.795C616.738 406.472 617.944 406.198 619.148 405.972L618.044 400.075C616.689 400.329 615.333 400.636 613.979 400.999L615.532 406.795ZM583.059 459.409C577.035 436.929 591.382 413.266 615.532 406.795L613.979 400.999C586.933 408.246 570.303 434.985 577.263 460.962L583.059 459.409ZM609.924 487.785C596.989 483.238 586.705 473.016 583.059 459.409L577.263 460.962C581.466 476.647 593.296 488.3 607.935 493.445L609.924 487.785ZM626.344 505.154C620.133 501.237 615.002 495.807 611.593 489.234L606.267 491.996C610.191 499.562 616.077 505.773 623.143 510.229L626.344 505.154ZM627.891 514.363C627.365 512.399 627.305 510.349 627.694 508.234L621.793 507.148C621.255 510.07 621.321 513.026 622.095 515.916L627.891 514.363ZM677.691 526.41C665.304 529.729 653.459 529.809 644.375 527.402C635.198 524.971 629.461 520.222 627.891 514.363L622.095 515.916C624.46 524.741 632.661 530.506 642.838 533.202C653.107 535.923 666.032 535.746 679.243 532.206L677.691 526.41ZM698.839 517.167C692.95 521.01 685.752 524.25 677.691 526.41L679.243 532.206C687.876 529.892 695.664 526.404 702.118 522.191L698.839 517.167ZM946.302 551.324C845.197 578.415 749.394 562.383 702.554 517.513L698.403 521.845C747.39 568.772 845.744 584.48 947.855 557.12L946.302 551.324ZM1142.46 392.353C1135.54 424.702 1112.93 457.376 1078.7 485.563C1044.49 513.723 998.866 537.24 946.302 551.324L947.855 557.12C1001.16 542.836 1047.58 518.953 1082.51 490.195C1117.41 461.465 1141.03 427.702 1148.33 393.609L1142.46 392.353ZM1155.55 388.395C1152.11 389.317 1148.66 389.836 1145.27 389.984L1145.53 395.978C1149.36 395.812 1153.24 395.226 1157.1 394.19L1155.55 388.395ZM1188.02 335.78C1194.05 358.26 1179.7 381.924 1155.55 388.395L1157.1 394.19C1184.15 386.943 1200.78 360.204 1193.82 334.227L1188.02 335.78ZM1156.19 305.972C1171.41 309.445 1183.92 320.477 1188.02 335.78L1193.82 334.227C1189.09 316.577 1174.71 304.042 1157.53 300.122L1156.19 305.972ZM1152.71 288.25C1154.01 293.102 1154.36 297.99 1153.88 302.744L1159.84 303.35C1160.4 297.888 1159.99 292.266 1158.5 286.697L1152.71 288.25ZM1098.28 258.921C1122.43 252.45 1146.68 265.77 1152.71 288.25L1158.5 286.697C1151.54 260.72 1123.77 245.879 1096.72 253.126L1098.28 258.921ZM1097.56 259.12C1097.8 259.052 1098.04 258.986 1098.28 258.921L1096.72 253.126C1096.45 253.198 1096.18 253.272 1095.92 253.348L1097.56 259.12ZM1042.31 235.447C1063.73 229.708 1085.27 239.556 1094.04 257.548L1099.43 254.92C1089.33 234.188 1064.78 223.214 1040.76 229.652L1042.31 235.447ZM1022.07 246.728C1027.52 241.546 1034.39 237.568 1042.31 235.447L1040.76 229.652C1031.86 232.035 1024.1 236.517 1017.94 242.382L1022.07 246.728ZM1015.8 238.018C1016.41 240.286 1016.81 242.561 1017.02 244.826L1022.99 244.284C1022.76 241.68 1022.3 239.066 1021.6 236.465L1015.8 238.018ZM961.375 208.689C985.525 202.218 1009.78 215.538 1015.8 238.018L1021.6 236.465C1014.64 210.488 986.868 195.647 959.822 202.894L961.375 208.689ZM938.31 222.918C944.119 216.298 952.02 211.196 961.375 208.689L959.822 202.894C949.306 205.712 940.381 211.461 933.8 218.96L938.31 222.918ZM914.287 221.746C921.515 220.812 928.619 221.585 935.091 223.78L937.018 218.097C929.688 215.612 921.661 214.744 913.519 215.796L914.287 221.746ZM662.078 420.85C662.129 420.913 662.18 420.975 662.232 421.038L666.877 417.241C666.819 417.169 666.76 417.097 666.701 417.026L662.078 420.85ZM667.453 415.167C666.247 415.49 665.041 415.764 663.837 415.989L664.941 421.887C666.296 421.633 667.652 421.325 669.006 420.963L667.453 415.167ZM674.125 412.844C671.998 413.766 669.77 414.546 667.453 415.167L669.006 420.963C671.608 420.265 674.114 419.388 676.512 418.349L674.125 412.844ZM677.856 417.477C677.957 417.169 678.059 416.86 678.163 416.551L672.475 414.642C672.366 414.966 672.258 415.29 672.153 415.614L677.856 417.477ZM669.006 420.963C671.202 420.375 673.383 419.887 675.538 419.498L674.47 413.593C672.152 414.013 669.808 414.536 667.453 415.167L669.006 420.963ZM665.461 421.999C666.623 421.631 667.805 421.285 669.006 420.963L667.453 415.167C666.165 415.513 664.896 415.884 663.648 416.28L665.461 421.999Z" fill="black" mask="url(#path-3-inside-2_1_579)"/>
<mask id="path-5-inside-3_1_579" fill="white">
<path fill-rule="evenodd" clip-rule="evenodd" d="M417.807 367.373C407.703 342.431 383.059 327.772 359.692 334.033C344.229 338.176 332.863 350.532 328.02 366.14C317.534 360.514 304.695 358.743 291.958 362.156C285.203 363.966 279.152 367.054 274.023 371.064C267.576 370.155 260.791 370.507 254.036 372.317C230.824 378.537 215.925 399.839 218.189 421.821C218.013 421.866 217.836 421.912 217.66 421.959C192.062 428.818 176.573 454.02 183.065 478.248C183.59 480.205 184.241 482.096 185.01 483.914C174.351 477.663 161.386 475.508 148.624 478.928C123.026 485.787 107.936 512.476 114.919 538.54C116.226 543.415 118.212 547.923 120.745 551.986C120.05 552.142 119.355 552.312 118.66 552.499C93.0613 559.358 77.5727 584.559 84.0647 608.788C87.989 623.433 99.0464 634.371 112.833 639.217C116.5 646.286 122.009 652.107 128.647 656.293C128.184 658.812 128.247 661.315 128.897 663.741C132.832 678.425 156.773 684.769 182.371 677.91C190.718 675.673 198.211 672.309 204.382 668.281C252.296 714.179 349.374 730.05 450.982 702.824C556.854 674.455 635.073 608.025 649.301 541.583C652.913 541.426 656.575 540.873 660.228 539.895C685.827 533.035 701.315 507.834 694.823 483.606C690.408 467.129 676.965 455.345 660.764 451.649C661.283 446.541 660.903 441.286 659.507 436.075C653.015 411.847 627.001 397.766 601.402 404.625C601.148 404.693 600.894 404.764 600.641 404.835C591.208 385.474 568.158 375.063 545.435 381.151C537.03 383.404 529.715 387.633 523.91 393.157C523.689 390.722 523.259 388.278 522.607 385.844C516.115 361.615 490.1 347.534 464.502 354.393C454.567 357.056 446.154 362.481 439.959 369.54C433.057 367.2 425.492 366.38 417.807 367.373Z"/>
</mask>
<path fill-rule="evenodd" clip-rule="evenodd" d="M417.807 367.373C407.703 342.431 383.059 327.772 359.692 334.033C344.229 338.176 332.863 350.532 328.02 366.14C317.534 360.514 304.695 358.743 291.958 362.156C285.203 363.966 279.152 367.054 274.023 371.064C267.576 370.155 260.791 370.507 254.036 372.317C230.824 378.537 215.925 399.839 218.189 421.821C218.013 421.866 217.836 421.912 217.66 421.959C192.062 428.818 176.573 454.02 183.065 478.248C183.59 480.205 184.241 482.096 185.01 483.914C174.351 477.663 161.386 475.508 148.624 478.928C123.026 485.787 107.936 512.476 114.919 538.54C116.226 543.415 118.212 547.923 120.745 551.986C120.05 552.142 119.355 552.312 118.66 552.499C93.0613 559.358 77.5727 584.559 84.0647 608.788C87.989 623.433 99.0464 634.371 112.833 639.217C116.5 646.286 122.009 652.107 128.647 656.293C128.184 658.812 128.247 661.315 128.897 663.741C132.832 678.425 156.773 684.769 182.371 677.91C190.718 675.673 198.211 672.309 204.382 668.281C252.296 714.179 349.374 730.05 450.982 702.824C556.854 674.455 635.073 608.025 649.301 541.583C652.913 541.426 656.575 540.873 660.228 539.895C685.827 533.035 701.315 507.834 694.823 483.606C690.408 467.129 676.965 455.345 660.764 451.649C661.283 446.541 660.903 441.286 659.507 436.075C653.015 411.847 627.001 397.766 601.402 404.625C601.148 404.693 600.894 404.764 600.641 404.835C591.208 385.474 568.158 375.063 545.435 381.151C537.03 383.404 529.715 387.633 523.91 393.157C523.689 390.722 523.259 388.278 522.607 385.844C516.115 361.615 490.1 347.534 464.502 354.393C454.567 357.056 446.154 362.481 439.959 369.54C433.057 367.2 425.492 366.38 417.807 367.373Z" fill="#8F9DD6"/>
<path d="M417.807 367.373L415.026 368.499L415.895 370.645L418.191 370.348L417.807 367.373ZM328.02 366.14L326.602 368.783L329.807 370.503L330.885 367.029L328.02 366.14ZM274.023 371.064L273.604 374.034L274.866 374.212L275.87 373.427L274.023 371.064ZM218.189 421.821L218.935 424.727L221.438 424.084L221.173 421.513L218.189 421.821ZM185.01 483.914L183.492 486.502L191.293 491.078L187.773 482.747L185.01 483.914ZM120.745 551.986L121.4 554.914L125.53 553.99L123.291 550.399L120.745 551.986ZM112.833 639.217L115.496 637.835L114.949 636.781L113.828 636.386L112.833 639.217ZM128.647 656.293L131.598 656.836L131.965 654.839L130.247 653.756L128.647 656.293ZM204.382 668.281L206.458 666.115L204.737 664.467L202.743 665.769L204.382 668.281ZM649.301 541.583L649.17 538.586L646.853 538.687L646.367 540.955L649.301 541.583ZM660.764 451.649L657.779 451.346L657.511 453.984L660.096 454.574L660.764 451.649ZM600.641 404.835L597.944 406.149L599.044 408.408L601.461 407.721L600.641 404.835ZM523.91 393.157L520.922 393.428L521.482 399.608L525.978 395.33L523.91 393.157ZM439.959 369.54L438.995 372.381L440.892 373.025L442.213 371.519L439.959 369.54ZM360.468 336.931C382.057 331.146 405.359 344.636 415.026 368.499L420.587 366.246C410.047 340.226 384.061 324.398 358.915 331.135L360.468 336.931ZM330.885 367.029C335.473 352.243 346.154 340.766 360.468 336.931L358.915 331.135C342.305 335.586 330.253 348.82 325.155 365.251L330.885 367.029ZM292.735 365.054C304.726 361.841 316.781 363.515 326.602 368.783L329.438 363.496C318.286 357.514 304.663 355.646 291.182 359.258L292.735 365.054ZM275.87 373.427C280.685 369.663 286.373 366.758 292.735 365.054L291.182 359.258C284.033 361.174 277.618 364.444 272.175 368.7L275.87 373.427ZM254.812 375.215C261.174 373.51 267.552 373.182 273.604 374.034L274.441 368.093C267.599 367.129 260.408 367.504 253.26 369.42L254.812 375.215ZM221.173 421.513C219.07 401.093 232.928 381.079 254.812 375.215L253.26 369.42C228.72 375.995 212.78 398.584 215.205 422.128L221.173 421.513ZM218.437 424.857C218.603 424.813 218.769 424.769 218.935 424.727L217.443 418.915C217.257 418.963 217.07 419.012 216.884 419.062L218.437 424.857ZM185.963 477.472C179.94 454.992 194.287 431.328 218.437 424.857L216.884 419.062C189.837 426.309 173.207 453.048 180.168 479.025L185.963 477.472ZM187.773 482.747C187.058 481.055 186.452 479.295 185.963 477.472L180.168 479.025C180.728 481.115 181.424 483.137 182.246 485.082L187.773 482.747ZM149.4 481.825C161.348 478.624 173.49 480.636 183.492 486.502L186.528 481.327C175.212 474.69 161.424 472.392 147.847 476.03L149.4 481.825ZM117.817 537.764C111.249 513.251 125.451 488.243 149.4 481.825L147.847 476.03C120.6 483.331 104.622 511.702 112.022 539.317L117.817 537.764ZM123.291 550.399C120.913 546.585 119.046 542.35 117.817 537.764L112.022 539.317C113.405 544.481 115.511 549.262 118.2 553.573L123.291 550.399ZM119.436 555.396C120.091 555.221 120.746 555.06 121.4 554.914L120.09 549.058C119.354 549.223 118.618 549.404 117.883 549.601L119.436 555.396ZM86.9625 608.011C80.939 585.531 95.286 561.867 119.436 555.396L117.883 549.601C90.8367 556.848 74.2064 583.587 81.1669 609.564L86.9625 608.011ZM113.828 636.386C100.893 631.84 90.6084 621.618 86.9625 608.011L81.1669 609.564C85.3695 625.248 97.2002 636.902 111.839 642.047L113.828 636.386ZM130.247 653.756C124.037 649.839 118.906 644.408 115.496 637.835L110.17 640.598C114.095 648.164 119.981 654.375 127.047 658.831L130.247 653.756ZM131.795 662.965C131.269 661.001 131.208 658.951 131.598 656.836L125.697 655.75C125.159 658.672 125.225 661.628 125.999 664.518L131.795 662.965ZM181.594 675.012C169.208 678.331 157.363 678.411 148.278 676.004C139.102 673.573 133.365 668.824 131.795 662.965L125.999 664.518C128.364 673.343 136.565 679.108 146.742 681.804C157.011 684.525 169.936 684.348 183.147 680.808L181.594 675.012ZM202.743 665.769C196.854 669.612 189.656 672.852 181.594 675.012L183.147 680.808C191.78 678.494 199.568 675.006 206.022 670.793L202.743 665.769ZM450.206 699.926C349.101 727.017 253.298 710.984 206.458 666.115L202.307 670.447C251.294 717.374 349.648 733.082 451.758 705.722L450.206 699.926ZM646.367 540.955C639.44 573.304 616.839 605.977 582.601 634.165C548.397 662.325 502.77 685.841 450.206 699.926L451.758 705.722C505.066 691.438 551.484 667.555 586.415 638.797C621.311 610.067 644.934 576.304 652.234 542.211L646.367 540.955ZM659.452 536.997C656.01 537.919 652.565 538.438 649.17 538.586L649.431 544.58C653.261 544.414 657.139 543.828 661.005 542.792L659.452 536.997ZM691.925 484.382C697.949 506.862 683.602 530.526 659.452 536.997L661.005 542.792C688.051 535.545 704.681 508.806 697.721 482.829L691.925 484.382ZM660.096 454.574C675.318 458.047 687.825 469.079 691.925 484.382L697.721 482.829C692.992 465.179 678.612 452.644 661.431 448.724L660.096 454.574ZM656.609 436.852C657.909 441.703 658.262 446.592 657.779 451.346L663.748 451.952C664.303 446.489 663.897 440.868 662.405 435.299L656.609 436.852ZM602.179 407.523C626.329 401.052 650.586 414.372 656.609 436.852L662.405 435.299C655.444 409.322 627.672 394.48 600.626 401.727L602.179 407.523ZM601.461 407.721C601.7 407.653 601.939 407.587 602.179 407.523L600.626 401.727C600.356 401.8 600.088 401.874 599.82 401.95L601.461 407.721ZM546.212 384.049C567.632 378.31 589.178 388.157 597.944 406.149L603.338 403.522C593.238 382.79 568.683 371.816 544.659 378.254L546.212 384.049ZM525.978 395.33C531.424 390.148 538.297 386.17 546.212 384.049L544.659 378.254C535.763 380.637 528.005 385.119 521.842 390.984L525.978 395.33ZM519.709 386.62C520.316 388.888 520.717 391.163 520.922 393.428L526.898 392.886C526.662 390.282 526.201 387.668 525.504 385.067L519.709 386.62ZM465.279 357.291C489.429 350.82 513.685 364.14 519.709 386.62L525.504 385.067C518.544 359.09 490.772 344.249 463.726 351.496L465.279 357.291ZM442.213 371.519C448.023 364.9 455.923 359.798 465.279 357.291L463.726 351.496C453.21 354.313 444.285 360.062 437.704 367.561L442.213 371.519ZM418.191 370.348C425.418 369.414 432.523 370.187 438.995 372.381L440.922 366.699C433.591 364.214 425.565 363.345 417.422 364.397L418.191 370.348Z" fill="black" mask="url(#path-5-inside-3_1_579)"/>
<mask id="path-7-inside-4_1_579" fill="white">
<path fill-rule="evenodd" clip-rule="evenodd" d="M789.265 354.755C779.161 329.814 754.517 315.155 731.149 321.416C715.687 325.559 704.321 337.915 699.478 353.522C688.992 347.897 676.152 346.126 663.416 349.538C656.661 351.349 650.609 354.436 645.48 358.446C639.034 357.538 632.249 357.89 625.494 359.7C602.282 365.919 587.383 387.221 589.647 409.203C589.47 409.248 589.294 409.294 589.118 409.342C563.52 416.201 548.031 441.402 554.523 465.631C555.027 467.51 555.648 469.329 556.377 471.081C545.758 464.967 532.829 462.895 520.082 466.31C494.483 473.169 479.314 499.561 486.199 525.258C487.573 530.387 489.723 535.101 492.486 539.306C491.696 539.478 490.907 539.67 490.117 539.881C464.519 546.74 449.03 571.942 455.522 596.17C459.447 610.816 470.504 621.753 484.291 626.599C487.958 633.669 493.467 639.489 500.105 643.676C499.642 646.194 499.705 648.697 500.355 651.124C504.289 665.808 528.23 672.151 553.829 665.292C562.176 663.056 569.669 659.692 575.84 655.664C623.754 701.562 720.832 717.432 822.44 690.206C928.312 661.838 1006.53 595.408 1020.76 528.966C1024.37 528.809 1028.03 528.256 1031.69 527.277C1057.28 520.418 1072.77 495.217 1066.28 470.988C1061.87 454.512 1048.42 442.728 1032.22 439.032C1032.74 433.924 1032.36 428.668 1030.96 423.458C1024.47 399.23 998.459 385.149 972.86 392.008C972.605 392.076 972.352 392.146 972.099 392.218C962.666 372.856 939.616 362.446 916.893 368.534C908.488 370.786 901.173 375.016 895.368 380.54C895.147 378.105 894.717 375.661 894.064 373.226C887.572 348.998 861.558 334.917 835.96 341.776C826.024 344.438 817.612 349.864 811.416 356.923C804.515 354.583 796.95 353.762 789.265 354.755Z"/>
</mask>
<path fill-rule="evenodd" clip-rule="evenodd" d="M789.265 354.755C779.161 329.814 754.517 315.155 731.149 321.416C715.687 325.559 704.321 337.915 699.478 353.522C688.992 347.897 676.152 346.126 663.416 349.538C656.661 351.349 650.609 354.436 645.48 358.446C639.034 357.538 632.249 357.89 625.494 359.7C602.282 365.919 587.383 387.221 589.647 409.203C589.47 409.248 589.294 409.294 589.118 409.342C563.52 416.201 548.031 441.402 554.523 465.631C555.027 467.51 555.648 469.329 556.377 471.081C545.758 464.967 532.829 462.895 520.082 466.31C494.483 473.169 479.314 499.561 486.199 525.258C487.573 530.387 489.723 535.101 492.486 539.306C491.696 539.478 490.907 539.67 490.117 539.881C464.519 546.74 449.03 571.942 455.522 596.17C459.447 610.816 470.504 621.753 484.291 626.599C487.958 633.669 493.467 639.489 500.105 643.676C499.642 646.194 499.705 648.697 500.355 651.124C504.289 665.808 528.23 672.151 553.829 665.292C562.176 663.056 569.669 659.692 575.84 655.664C623.754 701.562 720.832 717.432 822.44 690.206C928.312 661.838 1006.53 595.408 1020.76 528.966C1024.37 528.809 1028.03 528.256 1031.69 527.277C1057.28 520.418 1072.77 495.217 1066.28 470.988C1061.87 454.512 1048.42 442.728 1032.22 439.032C1032.74 433.924 1032.36 428.668 1030.96 423.458C1024.47 399.23 998.459 385.149 972.86 392.008C972.605 392.076 972.352 392.146 972.099 392.218C962.666 372.856 939.616 362.446 916.893 368.534C908.488 370.786 901.173 375.016 895.368 380.54C895.147 378.105 894.717 375.661 894.064 373.226C887.572 348.998 861.558 334.917 835.96 341.776C826.024 344.438 817.612 349.864 811.416 356.923C804.515 354.583 796.95 353.762 789.265 354.755Z" fill="#8F9DD6"/>
<path d="M789.265 354.755L786.484 355.882L787.353 358.027L789.649 357.731L789.265 354.755ZM699.478 353.522L698.06 356.166L701.265 357.885L702.343 354.411L699.478 353.522ZM645.48 358.446L645.062 361.417L646.324 361.595L647.328 360.809L645.48 358.446ZM589.647 409.203L590.393 412.109L592.896 411.466L592.631 408.896L589.647 409.203ZM556.377 471.081L554.88 473.681L562.545 478.094L559.147 469.929L556.377 471.081ZM492.486 539.306L493.125 542.237L497.391 541.308L494.993 537.659L492.486 539.306ZM484.291 626.599L486.954 625.218L486.407 624.163L485.286 623.769L484.291 626.599ZM500.105 643.676L503.055 644.218L503.423 642.221L501.705 641.138L500.105 643.676ZM575.84 655.664L577.915 653.497L576.195 651.85L574.2 653.151L575.84 655.664ZM1020.76 528.966L1020.63 525.969L1018.31 526.069L1017.82 528.338L1020.76 528.966ZM1032.22 439.032L1029.24 438.729L1028.97 441.367L1031.55 441.957L1032.22 439.032ZM972.099 392.218L969.402 393.532L970.502 395.791L972.919 395.104L972.099 392.218ZM895.368 380.54L892.38 380.81L892.94 386.991L897.436 382.713L895.368 380.54ZM811.416 356.923L810.453 359.764L812.35 360.407L813.671 358.902L811.416 356.923ZM731.926 324.314C753.515 318.529 776.817 332.018 786.484 355.882L792.045 353.629C781.504 327.609 755.518 311.78 730.373 318.518L731.926 324.314ZM702.343 354.411C706.931 339.626 717.611 328.149 731.926 324.314L730.373 318.518C713.763 322.969 701.711 336.203 696.613 352.633L702.343 354.411ZM664.193 352.436C676.184 349.223 688.239 350.897 698.06 356.166L700.896 350.878C689.744 344.896 676.121 343.028 662.64 346.641L664.193 352.436ZM647.328 360.809C652.143 357.045 657.831 354.141 664.193 352.436L662.64 346.641C655.491 348.556 649.076 351.827 643.633 356.083L647.328 360.809ZM626.27 362.598C632.632 360.893 639.01 360.564 645.062 361.417L645.899 355.475C639.057 354.512 631.866 354.886 624.717 356.802L626.27 362.598ZM592.631 408.896C590.528 388.476 604.386 368.461 626.27 362.598L624.717 356.802C600.178 363.377 584.237 385.966 586.663 409.51L592.631 408.896ZM589.894 412.239C590.06 412.195 590.226 412.151 590.393 412.109L588.901 406.297C588.714 406.345 588.528 406.394 588.341 406.444L589.894 412.239ZM557.421 464.854C551.397 442.374 565.744 418.71 589.894 412.239L588.341 406.444C561.295 413.691 544.665 440.43 551.625 466.407L557.421 464.854ZM559.147 469.929C558.468 468.298 557.89 466.605 557.421 464.854L551.625 466.407C552.163 468.415 552.827 470.359 553.607 472.234L559.147 469.929ZM520.858 469.208C532.805 466.007 544.92 467.946 554.88 473.681L557.874 468.481C546.596 461.988 532.852 459.783 519.305 463.413L520.858 469.208ZM489.097 524.482C482.637 500.375 496.871 475.636 520.858 469.208L519.305 463.413C492.096 470.703 475.99 498.748 483.301 526.035L489.097 524.482ZM494.993 537.659C492.403 533.718 490.387 529.298 489.097 524.482L483.301 526.035C484.76 531.477 487.042 536.484 489.979 540.954L494.993 537.659ZM490.894 542.779C491.637 542.58 492.381 542.399 493.125 542.237L491.847 536.375C491.012 536.557 490.176 536.76 489.341 536.983L490.894 542.779ZM458.42 595.394C452.397 572.914 466.744 549.25 490.894 542.779L489.341 536.983C462.294 544.231 445.664 570.97 452.625 596.947L458.42 595.394ZM485.286 623.769C472.35 619.222 462.066 609 458.42 595.394L452.625 596.947C456.827 612.631 468.658 624.284 483.296 629.43L485.286 623.769ZM501.705 641.138C495.495 637.221 490.364 631.791 486.954 625.218L481.628 627.981C485.553 635.547 491.439 641.757 498.505 646.213L501.705 641.138ZM503.253 650.348C502.726 648.384 502.666 646.334 503.055 644.218L497.155 643.133C496.617 646.055 496.683 649.01 497.457 651.901L503.253 650.348ZM553.052 662.395C540.666 665.714 528.821 665.794 519.736 663.387C510.559 660.955 504.823 656.207 503.253 650.348L497.457 651.901C499.822 660.726 508.023 666.49 518.2 669.187C528.468 671.908 541.393 671.73 554.605 668.19L553.052 662.395ZM574.2 653.151C568.312 656.995 561.114 660.235 553.052 662.395L554.605 668.19C563.238 665.877 571.025 662.388 577.48 658.176L574.2 653.151ZM821.663 687.309C720.558 714.4 624.755 698.367 577.915 653.497L573.765 657.83C622.752 704.757 721.106 720.465 823.216 693.104L821.663 687.309ZM1017.82 528.338C1010.9 560.687 988.297 593.36 954.059 621.548C919.855 649.708 874.228 673.224 821.663 687.309L823.216 693.104C876.524 678.82 922.942 654.938 957.872 626.18C992.769 597.45 1016.39 563.687 1023.69 529.594L1017.82 528.338ZM1030.91 524.379C1027.47 525.302 1024.02 525.821 1020.63 525.969L1020.89 531.963C1024.72 531.796 1028.6 531.211 1032.46 530.175L1030.91 524.379ZM1063.38 471.765C1069.41 494.245 1055.06 517.908 1030.91 524.379L1032.46 530.175C1059.51 522.928 1076.14 496.189 1069.18 470.212L1063.38 471.765ZM1031.55 441.957C1046.78 445.429 1059.28 456.462 1063.38 471.765L1069.18 470.212C1064.45 452.562 1050.07 440.027 1032.89 436.107L1031.55 441.957ZM1028.07 424.234C1029.37 429.086 1029.72 433.975 1029.24 438.729L1035.21 439.335C1035.76 433.872 1035.35 428.251 1033.86 422.682L1028.07 424.234ZM973.637 394.906C997.787 388.435 1022.04 401.754 1028.07 424.234L1033.86 422.682C1026.9 396.705 999.13 381.863 972.084 389.11L973.637 394.906ZM972.919 395.104C973.157 395.036 973.397 394.97 973.637 394.906L972.084 389.11C971.814 389.182 971.546 389.256 971.278 389.333L972.919 395.104ZM917.67 371.432C939.09 365.692 960.636 375.54 969.402 393.532L974.796 390.904C964.695 370.173 940.141 359.199 916.117 365.636L917.67 371.432ZM897.436 382.713C902.882 377.531 909.755 373.553 917.67 371.432L916.117 365.636C907.221 368.02 899.463 372.502 893.3 378.366L897.436 382.713ZM891.167 374.003C891.774 376.271 892.175 378.546 892.38 380.81L898.355 380.269C898.119 377.665 897.659 375.051 896.962 372.45L891.167 374.003ZM836.736 344.674C860.886 338.203 885.143 351.523 891.167 374.003L896.962 372.45C890.002 346.473 862.23 331.631 835.183 338.878L836.736 344.674ZM813.671 358.902C819.481 352.282 827.381 347.18 836.736 344.674L835.183 338.878C824.667 341.696 815.743 347.445 809.162 354.944L813.671 358.902ZM789.649 357.731C796.876 356.797 803.981 357.57 810.453 359.764L812.38 354.082C805.049 351.597 797.023 350.728 788.88 351.78L789.649 357.731Z" fill="black" mask="url(#path-7-inside-4_1_579)"/>
</svg>
