<svg width="580" height="452" viewBox="0 0 580 452" fill="none" xmlns="http://www.w3.org/2000/svg">
<path fill-rule="evenodd" clip-rule="evenodd" d="M273.57 398.675L285.515 449.13L403.884 322.15L391.938 271.695L273.57 398.675ZM391.938 271.696L264.959 153.327L146.591 280.306L273.57 398.675L391.938 271.696Z" fill="#4B3AB6"/>
<path d="M285.515 449.13L284.542 449.36L284.973 451.178L286.247 449.811L285.515 449.13ZM273.57 398.675L272.838 397.993L272.473 398.384L272.597 398.905L273.57 398.675ZM403.884 322.15L404.616 322.832L404.98 322.441L404.857 321.92L403.884 322.15ZM391.938 271.695L392.912 271.465L392.481 269.647L391.207 271.014L391.938 271.695ZM264.959 153.327L265.641 152.595L264.91 151.914L264.228 152.645L264.959 153.327ZM391.938 271.696L392.67 272.377L393.352 271.646L392.62 270.964L391.938 271.696ZM146.591 280.306L145.859 279.624L145.177 280.356L145.909 281.038L146.591 280.306ZM273.57 398.675L272.888 399.406L273.619 400.088L274.301 399.357L273.57 398.675ZM286.489 448.899L274.543 398.444L272.597 398.905L284.542 449.36L286.489 448.899ZM403.153 321.469L284.784 448.448L286.247 449.811L404.616 322.832L403.153 321.469ZM390.965 271.926L402.911 322.381L404.857 321.92L392.912 271.465L390.965 271.926ZM274.301 399.356L392.67 272.377L391.207 271.014L272.838 397.993L274.301 399.356ZM264.277 154.058L391.256 272.427L392.62 270.964L265.641 152.595L264.277 154.058ZM147.322 280.988L265.691 154.009L264.228 152.645L145.859 279.624L147.322 280.988ZM274.252 397.943L147.272 279.575L145.909 281.038L272.888 399.406L274.252 397.943ZM391.207 271.014L272.838 397.993L274.301 399.357L392.67 272.377L391.207 271.014Z" fill="black"/>
<path d="M158.536 330.761L146.591 280.306L264.959 153.327L276.905 203.782L158.536 330.761Z" fill="#291C72" stroke="black" stroke-width="2"/>
<rect x="276.905" y="203.782" width="173.594" height="173.594" transform="rotate(42.99 276.905 203.782)" fill="#3D2F90" stroke="black" stroke-width="2"/>
<path fill-rule="evenodd" clip-rule="evenodd" d="M510.307 144.716L383.328 26.3477L264.959 153.327L391.938 271.695L510.307 144.716ZM391.938 271.696L403.884 322.151L522.252 195.171L510.307 144.716L391.938 271.696Z" fill="#4B3AB6"/>
<path d="M383.328 26.3477L384.01 25.6162L383.278 24.9344L382.596 25.6658L383.328 26.3477ZM510.307 144.716L511.038 145.398L511.72 144.667L510.989 143.985L510.307 144.716ZM264.959 153.327L264.228 152.645L263.546 153.376L264.277 154.058L264.959 153.327ZM391.938 271.695L391.256 272.427L391.988 273.109L392.67 272.377L391.938 271.695ZM403.884 322.151L402.911 322.381L403.341 324.199L404.615 322.832L403.884 322.151ZM391.938 271.696L391.207 271.014L390.842 271.405L390.965 271.926L391.938 271.696ZM522.252 195.171L522.984 195.853L523.349 195.462L523.226 194.941L522.252 195.171ZM510.307 144.716L511.28 144.486L510.849 142.668L509.575 144.035L510.307 144.716ZM382.646 27.0792L509.625 145.448L510.989 143.985L384.01 25.6162L382.646 27.0792ZM265.691 154.009L384.059 27.0296L382.596 25.6658L264.228 152.645L265.691 154.009ZM392.62 270.964L265.641 152.595L264.277 154.058L391.256 272.427L392.62 270.964ZM509.575 144.034L391.207 271.014L392.67 272.377L511.038 145.398L509.575 144.034ZM404.857 321.92L392.911 271.465L390.965 271.926L402.911 322.381L404.857 321.92ZM521.521 194.49L403.152 321.469L404.615 322.832L522.984 195.853L521.521 194.49ZM509.334 144.947L521.279 195.402L523.226 194.941L511.28 144.486L509.334 144.947ZM392.67 272.377L511.038 145.398L509.575 144.035L391.207 271.014L392.67 272.377Z" fill="black"/>
<path d="M276.905 203.782L264.959 153.327L383.328 26.3477L395.273 76.8027L276.905 203.782Z" fill="#291C72" stroke="black" stroke-width="2"/>
<rect x="395.273" y="76.8029" width="173.594" height="173.594" transform="rotate(42.99 395.273 76.8029)" fill="#3D2F90" stroke="black" stroke-width="2"/>
<path fill-rule="evenodd" clip-rule="evenodd" d="M628.676 17.7372L501.696 -100.631L383.328 26.3477L501.282 136.304L510.307 144.716L522.252 195.171L640.621 68.1924L628.676 17.7373L628.676 17.7372Z" fill="#4B3AB6"/>
<path d="M501.696 -100.631L502.378 -101.363L501.647 -102.045L500.965 -101.313L501.696 -100.631ZM628.676 17.7372L629.645 17.9821L629.79 17.4089L629.357 17.0058L628.676 17.7372ZM383.328 26.3477L382.596 25.6659L381.914 26.3973L382.646 27.0792L383.328 26.3477ZM501.282 136.304L500.601 137.035L501.282 136.304ZM510.307 144.716L511.28 144.486L511.21 144.191L510.989 143.985L510.307 144.716ZM522.252 195.171L521.279 195.402L521.71 197.22L522.984 195.853L522.252 195.171ZM640.621 68.1924L641.353 68.8742L641.717 68.4828L641.594 67.962L640.621 68.1924ZM628.676 17.7373L627.706 17.4925L627.646 17.7297L627.702 17.9677L628.676 17.7373ZM501.015 -99.8999L627.994 18.4687L629.357 17.0058L502.378 -101.363L501.015 -99.8999ZM384.059 27.0296L502.428 -99.9495L500.965 -101.313L382.596 25.6659L384.059 27.0296ZM501.964 135.573L384.01 25.6163L382.646 27.0792L500.601 137.035L501.964 135.573ZM510.989 143.985L501.964 135.573L500.601 137.035L509.625 145.448L510.989 143.985ZM523.226 194.941L511.28 144.486L509.334 144.947L521.279 195.402L523.226 194.941ZM639.89 67.5105L521.521 194.49L522.984 195.853L641.353 68.8742L639.89 67.5105ZM627.702 17.9677L639.648 68.4227L641.594 67.962L629.649 17.507L627.702 17.9677ZM627.706 17.4923L627.706 17.4925L629.645 17.9822L629.645 17.9821L627.706 17.4923Z" fill="black"/>
<path d="M395.273 76.8028L383.328 26.3477L501.696 -100.631L513.642 -50.1764L395.273 76.8028Z" fill="#291C72" stroke="black" stroke-width="2"/>
<rect x="513.642" y="-50.1762" width="173.594" height="173.594" transform="rotate(42.99 513.642 -50.1762)" fill="#3D2F90" stroke="black" stroke-width="2"/>
<path fill-rule="evenodd" clip-rule="evenodd" d="M146.591 280.306L158.536 330.761L276.905 203.782L264.959 153.327L137.98 34.9583L19.6114 161.937L146.591 280.306Z" fill="#4B3AB6"/>
<path d="M158.536 330.761L157.563 330.991L157.994 332.81L159.268 331.443L158.536 330.761ZM146.591 280.306L147.564 280.076L147.494 279.781L147.273 279.574L146.591 280.306ZM276.905 203.782L277.636 204.464L278.001 204.072L277.878 203.551L276.905 203.782ZM264.959 153.327L265.932 153.097L265.863 152.802L265.641 152.595L264.959 153.327ZM137.98 34.9583L138.662 34.2268L137.93 33.545L137.249 34.2764L137.98 34.9583ZM19.6114 161.937L18.88 161.256L18.1981 161.987L18.9296 162.669L19.6114 161.937ZM159.509 330.531L147.564 280.076L145.618 280.536L157.563 330.991L159.509 330.531ZM276.173 203.1L157.805 330.079L159.268 331.443L277.636 204.464L276.173 203.1ZM263.986 153.557L275.932 204.012L277.878 203.551L265.932 153.097L263.986 153.557ZM137.298 35.6898L264.277 154.058L265.641 152.595L138.662 34.2268L137.298 35.6898ZM20.3429 162.619L138.712 35.6402L137.249 34.2764L18.88 161.256L20.3429 162.619ZM147.273 279.574L20.2933 161.206L18.9296 162.669L145.909 281.037L147.273 279.574Z" fill="black"/>
<path d="M31.5571 212.392L19.6115 161.937L137.98 34.9583L149.926 85.4133L31.5571 212.392Z" fill="#291C72" stroke="black" stroke-width="2"/>
<rect x="149.926" y="85.4133" width="173.594" height="173.594" transform="rotate(42.99 149.926 85.4133)" fill="#3D2F90" stroke="black" stroke-width="2"/>
</svg>
