<svg width="759" height="661" viewBox="0 0 759 661" fill="none" xmlns="http://www.w3.org/2000/svg">
<path d="M70.5032 203.989L79.4717 56.8772L182.501 81.6877C241.198 95.8226 302.459 95.4138 360.962 80.4969L398.408 70.949C435.422 61.5115 474.249 61.82 511.108 71.8447L557.55 84.4756C599.721 95.945 644.758 86.1529 678.323 58.3912L672.811 165.583L672.809 165.621V165.66V322.484L670.828 337.836C662.624 401.421 660.921 465.677 665.748 529.607L672.661 621.179L643.645 614.617C590.528 602.604 534.977 607.629 484.878 628.98C438.276 648.841 386.83 654.437 337.047 645.061L259.927 630.537C228.325 624.585 196.238 621.59 164.081 621.59H79.4916L70.5025 479.196L79.5809 322.667L79.5867 322.567L79.579 322.466L70.5032 203.989Z" fill="white" stroke="black" stroke-width="3"/>
<path d="M593.212 81.96L596.221 82.4283L594.75 79.7503L587.714 66.9412L604.561 70.2777L607.748 70.9088L606.154 68.0671L599.308 55.8639L614.888 59.3689L617.755 60.0138L616.588 57.3069L611.068 44.5013L627.276 43.5653L629.868 43.4157L628.438 41.2388L618.728 26.4547L632.981 29.2686L635.716 29.8084L634.653 27.2222L630.524 17.1751C631.13 17.4846 631.81 17.8371 632.556 18.2333C636.072 20.1003 641.075 22.9351 646.996 26.7956C658.841 34.519 674.343 46.3349 688.975 62.7025C703.825 79.3143 719.546 91.295 731.553 99.1234C736.011 102.03 739.96 104.366 743.165 106.156L736.854 105.069L734.11 104.597L735.233 107.155L740.692 119.592L727.82 117.07L725.402 116.596L726.099 118.968L730.796 134.965L717.453 134.265L715.332 134.154L715.943 136.197L719.101 146.752L704.23 142.803L700.425 141.793L702.601 145.086L713.418 161.458L697.993 158.47L695.102 157.91L696.356 160.585L700.781 170.019C699.929 169.556 698.956 169.02 697.876 168.414C693.637 166.034 687.773 162.586 681.276 158.316C668.252 149.754 652.81 137.966 642.777 124.926C632.432 111.481 616.651 99.4728 603.547 90.8589C597.355 86.7882 591.732 83.4579 587.518 81.074L593.212 81.96Z" fill="#8F9DD6" stroke="black" stroke-width="3"/>
<path d="M164.844 72.96L161.834 73.4283L163.305 70.7503L170.342 57.9412L153.495 61.2777L150.308 61.9088L151.902 59.0671L158.747 46.8639L143.167 50.3689L140.3 51.0138L141.467 48.3069L146.987 35.5013L130.78 34.5653L128.188 34.4157L129.617 32.2388L139.327 17.4547L125.074 20.2686L122.34 20.8084L123.403 18.2222L127.532 8.1751C126.925 8.48458 126.246 8.83713 125.5 9.23329C121.983 11.1003 116.981 13.9351 111.06 17.7956C99.2139 25.519 83.7121 37.3349 69.0802 53.7025C54.23 70.3143 38.509 82.295 26.5024 90.1234C22.0443 93.03 18.0956 95.366 14.89 97.1556L21.2012 96.0693L23.9456 95.5969L22.8227 98.1551L17.3639 110.592L30.2353 108.07L32.6536 107.596L31.9569 109.968L27.2591 125.965L40.6022 125.265L42.7239 125.154L42.1126 127.197L38.9544 137.752L53.8258 133.803L57.6302 132.793L55.4548 136.086L44.6371 152.458L60.0626 149.47L62.9537 148.91L61.6993 151.585L57.2746 161.019C58.1261 160.556 59.0998 160.02 60.1791 159.414C64.418 157.034 70.2824 153.586 76.7791 149.316C89.8033 140.754 105.245 128.966 115.278 115.926C125.623 102.481 141.404 90.4728 154.508 81.8589C160.701 77.7882 166.323 74.4579 170.538 72.074L164.844 72.96Z" fill="#8F9DD6" stroke="black" stroke-width="3"/>
</svg>
