<svg width="516" height="508" viewBox="0 0 516 508" fill="none" xmlns="http://www.w3.org/2000/svg">
<path fill-rule="evenodd" clip-rule="evenodd" d="M379.255 167.375L232.882 251.884L317.39 398.257L463.763 313.748L514.141 316.997L429.633 170.624L379.255 167.375L379.255 167.375Z" fill="#FFCF48"/>
<path d="M232.882 251.884L232.382 251.018L231.516 251.518L232.016 252.384L232.882 251.884ZM379.255 167.375L380.121 166.875L379.621 166.009L378.755 166.509L379.255 167.375ZM317.39 398.257L316.524 398.757L317.024 399.623L317.89 399.123L317.39 398.257ZM463.763 313.748L463.827 312.75L463.525 312.731L463.263 312.882L463.763 313.748ZM514.141 316.997L514.077 317.995L515.941 318.115L515.007 316.497L514.141 316.997ZM429.633 170.624L430.499 170.124L430.231 169.661L429.697 169.626L429.633 170.624ZM379.255 167.375L378.389 167.875L378.656 168.339L379.19 168.373L379.255 167.375ZM233.382 252.75L379.755 168.241L378.755 166.509L232.382 251.018L233.382 252.75ZM318.256 397.757L233.748 251.384L232.016 252.384L316.524 398.757L318.256 397.757ZM463.263 312.882L316.89 397.391L317.89 399.123L464.263 314.614L463.263 312.882ZM514.205 315.999L463.827 312.75L463.699 314.746L514.077 317.995L514.205 315.999ZM428.767 171.124L513.275 317.497L515.007 316.497L430.499 170.124L428.767 171.124ZM379.19 168.373L429.568 171.622L429.697 169.626L379.319 166.377L379.19 168.373ZM378.389 167.875L378.389 167.875L380.121 166.875L380.121 166.875L378.389 167.875Z" fill="black"/>
<path d="M367.768 401.506L317.39 398.257L232.882 251.884L283.26 255.133L367.768 401.506Z" fill="#D69D00" stroke="black" stroke-width="2"/>
<rect x="283.26" y="255.133" width="169.017" height="169.017" transform="rotate(-30 283.26 255.133)" fill="#E5B632" stroke="black" stroke-width="2"/>
<path fill-rule="evenodd" clip-rule="evenodd" d="M294.746 21.0021L148.373 105.511L232.882 251.884L379.255 167.375L429.633 170.624L345.124 24.2512L294.746 21.0022L294.746 21.0021Z" fill="#FFCF48"/>
<path d="M148.373 105.511L147.873 104.645L147.007 105.145L147.507 106.011L148.373 105.511ZM294.746 21.0021L295.612 20.5021L295.112 19.6361L294.246 20.1361L294.746 21.0021ZM232.882 251.884L232.016 252.384L232.516 253.25L233.382 252.75L232.882 251.884ZM379.255 167.375L379.319 166.377L379.017 166.358L378.755 166.509L379.255 167.375ZM429.633 170.624L429.568 171.622L431.433 171.742L430.499 170.124L429.633 170.624ZM345.124 24.2512L345.99 23.7512L345.723 23.2878L345.188 23.2533L345.124 24.2512ZM294.746 21.0022L293.88 21.5022L294.148 21.9657L294.682 22.0001L294.746 21.0022ZM148.873 106.377L295.246 21.8681L294.246 20.1361L147.873 104.645L148.873 106.377ZM233.748 251.384L149.239 105.011L147.507 106.011L232.016 252.384L233.748 251.384ZM378.755 166.509L232.382 251.018L233.382 252.75L379.755 168.241L378.755 166.509ZM429.697 169.626L379.319 166.377L379.19 168.373L429.568 171.622L429.697 169.626ZM344.258 24.7512L428.767 171.124L430.499 170.124L345.99 23.7512L344.258 24.7512ZM294.682 22.0001L345.06 25.2492L345.188 23.2533L294.81 20.0043L294.682 22.0001ZM293.88 21.5021L293.88 21.5022L295.612 20.5022L295.612 20.5021L293.88 21.5021Z" fill="black"/>
<path d="M283.26 255.133L232.882 251.884L148.373 105.511L198.751 108.76L283.26 255.133Z" fill="#D69D00" stroke="black" stroke-width="2"/>
<rect x="198.751" y="108.76" width="169.017" height="169.017" transform="rotate(-30 198.751 108.76)" fill="#E5B632" stroke="black" stroke-width="2"/>
<path fill-rule="evenodd" clip-rule="evenodd" d="M232.882 251.884L86.5085 336.392L171.017 482.765L317.39 398.257L317.39 398.257L367.768 401.506L283.26 255.133L232.882 251.884L232.882 251.884Z" fill="#FFCF48"/>
<path d="M86.5085 336.392L86.0085 335.526L85.1425 336.026L85.6425 336.892L86.5085 336.392ZM232.882 251.884L233.748 251.384L233.248 250.518L232.382 251.018L232.882 251.884ZM171.017 482.765L170.151 483.265L170.651 484.131L171.517 483.631L171.017 482.765ZM317.39 398.257L317.89 399.123L317.929 399.1L317.966 399.074L317.39 398.257ZM317.39 398.257L317.454 397.259L317.102 397.236L316.814 397.439L317.39 398.257ZM367.768 401.506L367.704 402.504L369.568 402.624L368.634 401.006L367.768 401.506ZM283.26 255.133L284.126 254.633L283.858 254.169L283.324 254.135L283.26 255.133ZM232.882 251.884L232.016 252.384L232.283 252.847L232.817 252.882L232.882 251.884ZM87.0085 337.258L233.382 252.75L232.382 251.018L86.0085 335.526L87.0085 337.258ZM171.883 482.265L87.3745 335.892L85.6425 336.892L170.151 483.265L171.883 482.265ZM316.89 397.391L170.517 481.899L171.517 483.631L317.89 399.123L316.89 397.391ZM316.814 397.439L316.814 397.44L317.966 399.074L317.966 399.074L316.814 397.439ZM367.832 400.508L317.454 397.259L317.326 399.255L367.704 402.504L367.832 400.508ZM282.394 255.633L366.902 402.006L368.634 401.006L284.126 254.633L282.394 255.633ZM232.817 252.882L283.195 256.131L283.324 254.135L232.946 250.886L232.817 252.882ZM232.016 252.384L232.016 252.384L233.748 251.384L233.748 251.384L232.016 252.384Z" fill="black"/>
<path d="M221.395 486.014L171.017 482.765L86.5085 336.392L136.887 339.641L221.395 486.014Z" fill="#D69D00" stroke="black" stroke-width="2"/>
<rect x="136.886" y="339.641" width="169.017" height="169.017" transform="rotate(-30 136.886 339.641)" fill="#E5B632" stroke="black" stroke-width="2"/>
<path fill-rule="evenodd" clip-rule="evenodd" d="M148.373 105.511L2 190.019L86.5085 336.392L232.881 251.884L283.26 255.133L198.751 108.76L148.373 105.511L148.373 105.511Z" fill="#FFCF48"/>
<path d="M2 190.019L1.5 189.153L0.633975 189.653L1.13397 190.519L2 190.019ZM148.373 105.511L149.239 105.011L148.739 104.145L147.873 104.645L148.373 105.511ZM86.5085 336.392L85.6425 336.892L86.1425 337.758L87.0085 337.258L86.5085 336.392ZM232.881 251.884L232.946 250.886L232.644 250.866L232.381 251.018L232.881 251.884ZM283.26 255.133L283.195 256.131L285.06 256.251L284.126 254.633L283.26 255.133ZM198.751 108.76L199.617 108.26L199.349 107.796L198.815 107.762L198.751 108.76ZM148.373 105.511L147.507 106.011L147.775 106.474L148.309 106.509L148.373 105.511ZM2.5 190.885L148.873 106.377L147.873 104.645L1.5 189.153L2.5 190.885ZM87.3745 335.892L2.86603 189.519L1.13397 190.519L85.6425 336.892L87.3745 335.892ZM232.381 251.018L86.0085 335.526L87.0085 337.258L233.381 252.75L232.381 251.018ZM283.324 254.135L232.946 250.886L232.817 252.882L283.195 256.131L283.324 254.135ZM197.885 109.26L282.394 255.633L284.126 254.633L199.617 108.26L197.885 109.26ZM148.309 106.509L198.687 109.758L198.815 107.762L148.437 104.513L148.309 106.509ZM147.507 106.011L147.507 106.011L149.239 105.011L149.239 105.011L147.507 106.011Z" fill="black"/>
<path d="M136.887 339.641L86.5085 336.392L2 190.019L52.3781 193.268L136.887 339.641Z" fill="#D69D00" stroke="black" stroke-width="2"/>
<rect x="52.378" y="193.268" width="169.017" height="169.017" transform="rotate(-30 52.378 193.268)" fill="#E5B632" stroke="black" stroke-width="2"/>
</svg>
