<svg width="1140" height="308" viewBox="0 0 1140 308" fill="none" xmlns="http://www.w3.org/2000/svg">
<mask id="path-1-inside-1_1_211" fill="white">
<path fill-rule="evenodd" clip-rule="evenodd" d="M371.269 47.2449C374.574 20.538 394.584 0 418.775 0C434.783 0 448.96 8.99293 457.678 22.8154C466.351 14.6677 478.294 9.63403 491.48 9.63403C498.473 9.63403 505.118 11.0502 511.11 13.596C517.102 11.0502 523.746 9.63403 530.74 9.63403C554.77 9.63403 574.675 26.3535 578.178 48.1726C578.36 48.1706 578.542 48.1697 578.725 48.1697C605.226 48.1697 626.709 68.5036 626.709 93.5868C626.709 95.6127 626.569 97.6076 626.297 99.5633C634.975 90.7664 646.94 85.3291 660.153 85.3291C686.654 85.3291 708.138 107.203 708.138 134.187C708.138 139.234 707.386 144.102 705.991 148.682C706.702 148.653 707.418 148.638 708.138 148.638C734.639 148.638 756.123 168.972 756.123 194.055C756.123 209.217 748.273 222.644 736.21 230.893C734.497 238.671 730.683 245.719 725.354 251.48C726.454 253.793 727.041 256.227 727.041 258.74C727.041 273.942 705.557 286.265 679.056 286.265C670.415 286.265 662.306 284.955 655.303 282.662C620.901 339.397 531.238 379.852 426.046 379.852C316.439 379.852 223.692 335.93 192.753 275.434C189.223 276.217 185.543 276.632 181.76 276.632C155.259 276.632 133.776 256.298 133.776 231.214C133.776 214.157 143.711 199.295 158.404 191.531C156.58 186.732 155.587 181.557 155.587 176.163C155.587 151.08 177.07 130.746 203.571 130.746C203.835 130.746 204.099 130.748 204.362 130.752C208.462 109.609 228.032 93.5867 251.556 93.5867C260.258 93.5867 268.419 95.779 275.455 99.6118C275.038 97.2032 274.821 94.7309 274.821 92.2105C274.821 67.1274 296.305 46.7935 322.806 46.7935C333.092 46.7935 342.622 49.8567 350.434 55.072C356.494 51.0257 363.589 48.2748 371.269 47.2449Z"/>
</mask>
<path fill-rule="evenodd" clip-rule="evenodd" d="M371.269 47.2449C374.574 20.538 394.584 0 418.775 0C434.783 0 448.96 8.99293 457.678 22.8154C466.351 14.6677 478.294 9.63403 491.48 9.63403C498.473 9.63403 505.118 11.0502 511.11 13.596C517.102 11.0502 523.746 9.63403 530.74 9.63403C554.77 9.63403 574.675 26.3535 578.178 48.1726C578.36 48.1706 578.542 48.1697 578.725 48.1697C605.226 48.1697 626.709 68.5036 626.709 93.5868C626.709 95.6127 626.569 97.6076 626.297 99.5633C634.975 90.7664 646.94 85.3291 660.153 85.3291C686.654 85.3291 708.138 107.203 708.138 134.187C708.138 139.234 707.386 144.102 705.991 148.682C706.702 148.653 707.418 148.638 708.138 148.638C734.639 148.638 756.123 168.972 756.123 194.055C756.123 209.217 748.273 222.644 736.21 230.893C734.497 238.671 730.683 245.719 725.354 251.48C726.454 253.793 727.041 256.227 727.041 258.74C727.041 273.942 705.557 286.265 679.056 286.265C670.415 286.265 662.306 284.955 655.303 282.662C620.901 339.397 531.238 379.852 426.046 379.852C316.439 379.852 223.692 335.93 192.753 275.434C189.223 276.217 185.543 276.632 181.76 276.632C155.259 276.632 133.776 256.298 133.776 231.214C133.776 214.157 143.711 199.295 158.404 191.531C156.58 186.732 155.587 181.557 155.587 176.163C155.587 151.08 177.07 130.746 203.571 130.746C203.835 130.746 204.099 130.748 204.362 130.752C208.462 109.609 228.032 93.5867 251.556 93.5867C260.258 93.5867 268.419 95.779 275.455 99.6118C275.038 97.2032 274.821 94.7309 274.821 92.2105C274.821 67.1274 296.305 46.7935 322.806 46.7935C333.092 46.7935 342.622 49.8567 350.434 55.072C356.494 51.0257 363.589 48.2748 371.269 47.2449Z" fill="#8F9DD6"/>
<path d="M371.269 47.2449L374.247 47.6133L373.963 49.9106L371.668 50.2183L371.269 47.2449ZM457.678 22.8154L459.732 25.0019L457.081 27.4925L455.14 24.4157L457.678 22.8154ZM511.11 13.596L512.283 16.3571L511.11 16.8555L509.937 16.3571L511.11 13.596ZM578.178 48.1726L578.209 51.1724L575.625 51.1997L575.216 48.648L578.178 48.1726ZM626.297 99.5633L628.433 101.67L622.082 108.109L623.326 99.1507L626.297 99.5633ZM705.991 148.682L706.116 151.68L701.887 151.856L703.121 147.808L705.991 148.682ZM736.21 230.893L733.28 230.248L733.535 229.088L734.516 228.417L736.21 230.893ZM725.354 251.48L722.645 252.768L721.773 250.934L723.152 249.443L725.354 251.48ZM655.303 282.662L652.738 281.106L653.973 279.069L656.236 279.811L655.303 282.662ZM192.753 275.434L192.103 272.505L194.368 272.003L195.424 274.068L192.753 275.434ZM158.404 191.531L161.208 190.466L162.15 192.945L159.805 194.184L158.404 191.531ZM204.362 130.752L207.307 131.323L206.828 133.79L204.316 133.752L204.362 130.752ZM275.455 99.6118L278.411 99.1L279.47 105.215L274.02 102.246L275.455 99.6118ZM350.434 55.072L352.1 57.567L350.434 58.6792L348.768 57.567L350.434 55.072ZM418.775 3C396.425 3 377.408 22.0609 374.247 47.6133L368.292 46.8765C371.739 19.0151 392.743 -3 418.775 -3V3ZM455.14 24.4157C446.882 11.3217 433.595 3 418.775 3V-3C435.972 -3 451.038 6.66419 460.215 21.2151L455.14 24.4157ZM491.48 12.634C479.065 12.634 467.854 17.3713 459.732 25.0019L455.624 20.6289C464.847 11.964 477.523 6.63403 491.48 6.63403V12.634ZM509.937 16.3571C504.312 13.9673 498.066 12.634 491.48 12.634V6.63403C498.881 6.63403 505.923 8.13304 512.283 10.8349L509.937 16.3571ZM530.74 12.634C524.153 12.634 517.908 13.9673 512.283 16.3571L509.937 10.8349C516.296 8.13304 523.339 6.63403 530.74 6.63403V12.634ZM575.216 48.648C571.962 28.3795 553.396 12.634 530.74 12.634V6.63403C556.145 6.63403 577.389 24.3275 581.14 47.6971L575.216 48.648ZM578.725 51.1697C578.553 51.1697 578.381 51.1706 578.209 51.1724L578.146 45.1727C578.339 45.1707 578.531 45.1697 578.725 45.1697V51.1697ZM623.709 93.5868C623.709 70.3138 603.726 51.1697 578.725 51.1697V45.1697C606.725 45.1697 629.709 66.6934 629.709 93.5868H623.709ZM623.326 99.1507C623.579 97.3312 623.709 95.4741 623.709 93.5868H629.709C629.709 95.7512 629.559 97.884 629.269 99.976L623.326 99.1507ZM660.153 88.3291C647.783 88.3291 636.576 93.4153 628.433 101.67L624.162 97.4566C633.374 88.1175 646.097 82.3291 660.153 82.3291V88.3291ZM705.138 134.187C705.138 108.809 684.947 88.3291 660.153 88.3291V82.3291C688.362 82.3291 711.138 105.598 711.138 134.187H705.138ZM703.121 147.808C704.431 143.509 705.138 138.935 705.138 134.187H711.138C711.138 139.533 710.341 144.696 708.86 149.557L703.121 147.808ZM708.138 151.638C707.46 151.638 706.786 151.652 706.116 151.68L705.866 145.685C706.619 145.654 707.377 145.638 708.138 145.638V151.638ZM753.123 194.055C753.123 170.782 733.14 151.638 708.138 151.638V145.638C736.138 145.638 759.123 167.162 759.123 194.055H753.123ZM734.516 228.417C745.834 220.677 753.123 208.142 753.123 194.055H759.123C759.123 210.293 750.711 224.611 737.903 233.37L734.516 228.417ZM723.152 249.443C728.137 244.053 731.688 237.48 733.28 230.248L739.139 231.538C737.307 239.862 733.229 247.384 727.557 253.517L723.152 249.443ZM724.041 258.74C724.041 256.707 723.568 254.711 722.645 252.768L728.064 250.192C729.339 252.876 730.041 255.747 730.041 258.74H724.041ZM679.056 283.265C691.88 283.265 703.341 280.277 711.494 275.601C719.729 270.877 724.041 264.805 724.041 258.74H730.041C730.041 267.876 723.611 275.567 714.479 280.806C705.264 286.091 692.734 289.265 679.056 289.265V283.265ZM656.236 279.811C662.919 281.999 670.71 283.265 679.056 283.265V289.265C670.119 289.265 661.694 287.911 654.369 285.513L656.236 279.811ZM426.046 376.852C530.718 376.852 619.107 336.57 652.738 281.106L657.868 284.217C622.696 342.223 531.759 382.852 426.046 382.852V376.852ZM195.424 274.068C210.488 303.522 240.775 329.233 281.142 347.598C321.468 365.946 371.627 376.852 426.046 376.852V382.852C370.858 382.852 319.84 371.797 278.657 353.06C237.513 334.34 205.958 307.842 190.082 276.8L195.424 274.068ZM181.76 273.632C185.323 273.632 188.785 273.241 192.103 272.505L193.403 278.363C189.66 279.193 185.762 279.632 181.76 279.632V273.632ZM136.776 231.214C136.776 254.487 156.758 273.632 181.76 273.632V279.632C153.76 279.632 130.776 258.108 130.776 231.214H136.776ZM159.805 194.184C146.001 201.478 136.776 215.372 136.776 231.214H130.776C130.776 212.942 141.421 197.112 157.002 188.879L159.805 194.184ZM158.587 176.163C158.587 181.186 159.511 185.999 161.208 190.466L155.599 192.597C153.649 187.464 152.587 181.929 152.587 176.163H158.587ZM203.571 133.746C178.569 133.746 158.587 152.89 158.587 176.163H152.587C152.587 149.27 175.571 127.746 203.571 127.746V133.746ZM204.316 133.752C204.068 133.748 203.82 133.746 203.571 133.746V127.746C203.851 127.746 204.129 127.748 204.407 127.752L204.316 133.752ZM251.556 96.5867C229.38 96.5867 211.117 111.675 207.307 131.323L201.416 130.181C205.807 107.542 226.684 90.5867 251.556 90.5867V96.5867ZM274.02 102.246C267.418 98.6503 259.75 96.5867 251.556 96.5867V90.5867C260.766 90.5867 269.419 92.9077 276.89 96.9773L274.02 102.246ZM277.821 92.2105C277.821 94.5584 278.023 96.8595 278.411 99.1L272.499 100.124C272.053 97.547 271.821 94.9034 271.821 92.2105H277.821ZM322.806 49.7935C297.804 49.7935 277.821 68.9375 277.821 92.2105H271.821C271.821 65.3172 294.806 43.7935 322.806 43.7935V49.7935ZM348.768 57.567C341.443 52.6765 332.491 49.7935 322.806 49.7935V43.7935C333.693 43.7935 343.802 47.0369 352.1 52.577L348.768 57.567ZM371.668 50.2183C364.446 51.1868 357.783 53.7723 352.1 57.567L348.768 52.577C355.205 48.2791 362.733 45.3628 370.871 44.2715L371.668 50.2183Z" fill="black" mask="url(#path-1-inside-1_1_211)"/>
<mask id="path-3-inside-2_1_211" fill="white">
<path fill-rule="evenodd" clip-rule="evenodd" d="M237.494 162.852C240.798 136.145 260.809 115.607 285 115.607C301.008 115.607 315.185 124.6 323.902 138.422C332.575 130.275 344.519 125.241 357.704 125.241C364.698 125.241 371.342 126.657 377.334 129.203C383.326 126.657 389.971 125.241 396.964 125.241C420.995 125.241 440.9 141.961 444.402 163.78C444.584 163.778 444.766 163.777 444.949 163.777C471.45 163.777 492.934 184.111 492.934 209.194C492.934 210.829 492.842 212.444 492.664 214.034C501.33 205.935 513.237 200.936 526.377 200.936C552.879 200.936 574.362 221.27 574.362 246.353C574.362 252.764 572.959 258.865 570.427 264.395C571.725 264.296 573.037 264.245 574.362 264.245C600.863 264.245 622.347 284.579 622.347 309.662C622.347 324.824 614.497 338.251 602.434 346.5C600.722 354.278 596.907 361.326 591.579 367.088C592.678 369.4 593.265 371.834 593.265 374.347C593.265 389.549 571.782 401.872 545.281 401.872C536.639 401.872 528.531 400.562 521.527 398.269C487.126 455.004 397.463 495.459 292.27 495.459C182.664 495.459 89.9166 451.537 58.9773 391.041C55.4472 391.824 51.7671 392.238 47.9847 392.238C21.4835 392.238 6.10352e-05 371.905 6.10352e-05 346.821C6.10352e-05 329.764 9.93549 314.902 24.6278 307.138C22.8046 302.339 21.8112 297.165 21.8112 291.771C21.8112 266.687 43.2947 246.354 69.7959 246.354C70.0598 246.354 70.3231 246.356 70.5859 246.36C74.686 225.216 94.2564 209.194 117.781 209.194C126.482 209.194 134.643 211.386 141.68 215.219C141.263 212.81 141.046 210.338 141.046 207.818C141.046 182.735 162.529 162.401 189.031 162.401C199.317 162.401 208.847 165.464 216.658 170.679C222.719 166.633 229.814 163.882 237.494 162.852ZM530.205 291.857C530.241 291.778 530.277 291.699 530.313 291.62C529.015 291.719 527.703 291.77 526.377 291.77C523.831 291.77 521.331 291.582 518.891 291.221C519.076 291.499 519.259 291.777 519.44 292.056C521.705 291.868 524.022 291.771 526.377 291.771C527.666 291.771 528.942 291.8 530.205 291.857Z"/>
</mask>
<path fill-rule="evenodd" clip-rule="evenodd" d="M237.494 162.852C240.798 136.145 260.809 115.607 285 115.607C301.008 115.607 315.185 124.6 323.902 138.422C332.575 130.275 344.519 125.241 357.704 125.241C364.698 125.241 371.342 126.657 377.334 129.203C383.326 126.657 389.971 125.241 396.964 125.241C420.995 125.241 440.9 141.961 444.402 163.78C444.584 163.778 444.766 163.777 444.949 163.777C471.45 163.777 492.934 184.111 492.934 209.194C492.934 210.829 492.842 212.444 492.664 214.034C501.33 205.935 513.237 200.936 526.377 200.936C552.879 200.936 574.362 221.27 574.362 246.353C574.362 252.764 572.959 258.865 570.427 264.395C571.725 264.296 573.037 264.245 574.362 264.245C600.863 264.245 622.347 284.579 622.347 309.662C622.347 324.824 614.497 338.251 602.434 346.5C600.722 354.278 596.907 361.326 591.579 367.088C592.678 369.4 593.265 371.834 593.265 374.347C593.265 389.549 571.782 401.872 545.281 401.872C536.639 401.872 528.531 400.562 521.527 398.269C487.126 455.004 397.463 495.459 292.27 495.459C182.664 495.459 89.9166 451.537 58.9773 391.041C55.4472 391.824 51.7671 392.238 47.9847 392.238C21.4835 392.238 6.10352e-05 371.905 6.10352e-05 346.821C6.10352e-05 329.764 9.93549 314.902 24.6278 307.138C22.8046 302.339 21.8112 297.165 21.8112 291.771C21.8112 266.687 43.2947 246.354 69.7959 246.354C70.0598 246.354 70.3231 246.356 70.5859 246.36C74.686 225.216 94.2564 209.194 117.781 209.194C126.482 209.194 134.643 211.386 141.68 215.219C141.263 212.81 141.046 210.338 141.046 207.818C141.046 182.735 162.529 162.401 189.031 162.401C199.317 162.401 208.847 165.464 216.658 170.679C222.719 166.633 229.814 163.882 237.494 162.852ZM530.205 291.857C530.241 291.778 530.277 291.699 530.313 291.62C529.015 291.719 527.703 291.77 526.377 291.77C523.831 291.77 521.331 291.582 518.891 291.221C519.076 291.499 519.259 291.777 519.44 292.056C521.705 291.868 524.022 291.771 526.377 291.771C527.666 291.771 528.942 291.8 530.205 291.857Z" fill="#8F9DD6"/>
<path d="M237.494 162.852L240.471 163.22L240.187 165.518L237.893 165.825L237.494 162.852ZM323.902 138.422L325.956 140.609L323.305 143.099L321.364 140.023L323.902 138.422ZM377.334 129.203L378.507 131.964L377.334 132.462L376.161 131.964L377.334 129.203ZM444.402 163.78L444.434 166.78L441.85 166.807L441.44 164.255L444.402 163.78ZM492.664 214.034L494.713 216.226L488.78 221.771L489.683 213.7L492.664 214.034ZM570.427 264.395L570.657 267.387L565.579 267.777L567.699 263.147L570.427 264.395ZM602.434 346.5L599.504 345.855L599.76 344.695L600.741 344.024L602.434 346.5ZM591.579 367.088L588.87 368.376L587.998 366.542L589.376 365.051L591.579 367.088ZM521.527 398.269L518.962 396.713L520.197 394.676L522.461 395.418L521.527 398.269ZM58.9773 391.041L58.3276 388.112L60.592 387.61L61.6483 389.675L58.9773 391.041ZM24.6278 307.138L27.4323 306.073L28.3739 308.552L26.0294 309.791L24.6278 307.138ZM70.5859 246.36L73.531 246.931L73.0526 249.398L70.54 249.359L70.5859 246.36ZM141.68 215.219L144.636 214.707L145.695 220.822L140.245 217.854L141.68 215.219ZM216.658 170.679L218.324 173.174L216.658 174.286L214.992 173.174L216.658 170.679ZM530.313 291.62L530.083 288.628L535.161 288.238L533.041 292.869L530.313 291.62ZM530.205 291.857L532.94 293.09L532.104 294.946L530.07 294.854L530.205 291.857ZM518.891 291.221L516.391 292.879L512.667 287.265L519.331 288.253L518.891 291.221ZM519.44 292.056L519.689 295.046L517.905 295.194L516.927 293.694L519.44 292.056ZM285 118.607C262.65 118.607 243.633 137.668 240.471 163.22L234.517 162.484C237.964 134.622 258.967 112.607 285 112.607V118.607ZM321.364 140.023C313.107 126.929 299.819 118.607 285 118.607V112.607C302.196 112.607 317.263 122.271 326.44 136.822L321.364 140.023ZM357.704 128.241C345.29 128.241 334.079 132.978 325.956 140.609L321.848 136.236C331.072 127.571 343.747 122.241 357.704 122.241V128.241ZM376.161 131.964C370.536 129.574 364.29 128.241 357.704 128.241V122.241C365.105 122.241 372.148 123.74 378.507 126.442L376.161 131.964ZM396.964 128.241C390.378 128.241 384.132 129.574 378.507 131.964L376.161 126.442C382.52 123.74 389.563 122.241 396.964 122.241V128.241ZM441.44 164.255C438.187 143.987 419.621 128.241 396.964 128.241V122.241C422.369 122.241 443.613 139.935 447.364 163.304L441.44 164.255ZM444.949 166.777C444.777 166.777 444.605 166.778 444.434 166.78L444.37 160.78C444.563 160.778 444.756 160.777 444.949 160.777V166.777ZM489.934 209.194C489.934 185.921 469.951 166.777 444.949 166.777V160.777C472.949 160.777 495.934 182.301 495.934 209.194H489.934ZM489.683 213.7C489.849 212.221 489.934 210.717 489.934 209.194H495.934C495.934 210.941 495.836 212.667 495.646 214.368L489.683 213.7ZM526.377 203.936C514.006 203.936 502.829 208.641 494.713 216.226L490.616 211.842C499.832 203.23 512.468 197.936 526.377 197.936V203.936ZM571.362 246.353C571.362 223.08 551.379 203.936 526.377 203.936V197.936C554.378 197.936 577.362 219.46 577.362 246.353H571.362ZM567.699 263.147C570.057 257.997 571.362 252.321 571.362 246.353H577.362C577.362 253.207 575.861 259.733 573.154 265.644L567.699 263.147ZM574.362 267.245C573.114 267.245 571.878 267.293 570.657 267.387L570.197 261.404C571.571 261.299 572.96 261.245 574.362 261.245V267.245ZM619.347 309.662C619.347 286.389 599.364 267.245 574.362 267.245V261.245C602.363 261.245 625.347 282.769 625.347 309.662H619.347ZM600.741 344.024C612.059 336.284 619.347 323.749 619.347 309.662H625.347C625.347 325.9 616.935 340.218 604.128 348.977L600.741 344.024ZM589.376 365.051C594.362 359.66 597.912 353.087 599.504 345.855L605.364 347.145C603.531 355.469 599.453 362.992 593.781 369.124L589.376 365.051ZM590.265 374.347C590.265 372.314 589.793 370.318 588.87 368.376L594.288 365.8C595.564 368.483 596.265 371.355 596.265 374.347H590.265ZM545.281 398.872C558.104 398.872 569.566 395.884 577.718 391.208C585.953 386.484 590.265 380.412 590.265 374.347H596.265C596.265 383.483 589.836 391.174 580.704 396.413C571.489 401.698 558.958 404.872 545.281 404.872V398.872ZM522.461 395.418C529.143 397.606 536.935 398.872 545.281 398.872V404.872C536.343 404.872 527.918 403.518 520.594 401.12L522.461 395.418ZM292.27 492.459C396.942 492.459 485.331 452.177 518.962 396.713L524.092 399.824C488.92 457.83 397.983 498.459 292.27 498.459V492.459ZM61.6483 389.675C76.712 419.129 106.999 444.84 147.366 463.205C187.693 481.553 237.852 492.459 292.27 492.459V498.459C237.082 498.459 186.064 487.404 144.881 468.667C103.738 449.947 72.1819 423.449 56.3063 392.407L61.6483 389.675ZM47.9847 389.238C51.5476 389.238 55.0099 388.848 58.3276 388.112L59.627 393.97C55.8845 394.8 51.9866 395.238 47.9847 395.238V389.238ZM3.00006 346.821C3.00006 370.094 22.9828 389.238 47.9847 389.238V395.238C19.9843 395.238 -2.99994 373.715 -2.99994 346.821H3.00006ZM26.0294 309.791C12.2258 317.085 3.00006 330.979 3.00006 346.821H-2.99994C-2.99994 328.549 7.64514 312.719 23.2262 304.486L26.0294 309.791ZM24.8112 291.771C24.8112 296.793 25.7357 301.607 27.4323 306.073L21.8233 308.204C19.8736 303.071 18.8112 297.536 18.8112 291.771H24.8112ZM69.7959 249.354C44.7939 249.354 24.8112 268.498 24.8112 291.771H18.8112C18.8112 264.877 41.7954 243.354 69.7959 243.354V249.354ZM70.54 249.359C70.2925 249.355 70.0444 249.354 69.7959 249.354V243.354C70.075 243.354 70.3536 243.356 70.6317 243.36L70.54 249.359ZM117.781 212.194C95.6043 212.194 77.3411 227.283 73.531 246.931L67.6407 245.788C72.0309 223.149 92.9084 206.194 117.781 206.194V212.194ZM140.245 217.854C133.643 214.257 125.975 212.194 117.781 212.194V206.194C126.99 206.194 135.643 208.515 143.115 212.584L140.245 217.854ZM144.046 207.818C144.046 210.166 144.248 212.467 144.636 214.707L138.724 215.731C138.278 213.154 138.046 210.511 138.046 207.818H144.046ZM189.031 165.401C164.029 165.401 144.046 184.545 144.046 207.818H138.046C138.046 180.924 161.03 159.401 189.031 159.401V165.401ZM214.992 173.174C207.667 168.284 198.716 165.401 189.031 165.401V159.401C199.918 159.401 210.026 162.644 218.324 168.184L214.992 173.174ZM237.893 165.825C230.67 166.794 224.008 169.379 218.324 173.174L214.992 168.184C221.43 163.886 228.958 160.97 237.095 159.879L237.893 165.825ZM533.041 292.869C533.007 292.942 532.974 293.016 532.94 293.09L527.47 290.624C527.508 290.54 527.547 290.455 527.585 290.371L533.041 292.869ZM526.377 288.77C527.626 288.77 528.862 288.722 530.083 288.628L530.543 294.611C529.169 294.716 527.779 294.77 526.377 294.77V288.77ZM519.331 288.253C521.625 288.593 523.978 288.77 526.377 288.77V294.77C523.683 294.77 521.036 294.572 518.451 294.188L519.331 288.253ZM516.927 293.694C516.75 293.422 516.571 293.15 516.391 292.879L521.391 289.562C521.58 289.847 521.768 290.132 521.954 290.418L516.927 293.694ZM526.377 294.771C524.104 294.771 521.871 294.865 519.689 295.046L519.192 289.066C521.54 288.871 523.939 288.771 526.377 288.771V294.771ZM530.07 294.854C528.852 294.799 527.621 294.771 526.377 294.771V288.771C527.711 288.771 529.033 288.801 530.341 288.86L530.07 294.854Z" fill="black" mask="url(#path-3-inside-2_1_211)"/>
<mask id="path-5-inside-3_1_211" fill="white">
<path fill-rule="evenodd" clip-rule="evenodd" d="M755.147 177.991C758.451 151.284 778.462 130.746 802.653 130.746C818.661 130.746 832.838 139.739 841.555 153.562C850.228 145.414 862.172 140.38 875.357 140.38C882.351 140.38 888.995 141.796 894.987 144.342C900.979 141.796 907.624 140.38 914.617 140.38C938.648 140.38 958.553 157.1 962.055 178.919C962.237 178.917 962.42 178.916 962.602 178.916C989.103 178.916 1010.59 199.25 1010.59 224.333C1010.59 226.359 1010.45 228.354 1010.18 230.309C1018.85 221.513 1030.82 216.075 1044.03 216.075C1070.53 216.075 1092.02 237.95 1092.02 264.933C1092.02 269.98 1091.26 274.849 1089.87 279.429C1090.58 279.399 1091.3 279.384 1092.02 279.384C1118.52 279.384 1140 299.718 1140 324.801C1140 339.963 1132.15 353.39 1120.09 361.639C1118.37 369.417 1114.56 376.465 1109.23 382.227C1110.33 384.54 1110.92 386.973 1110.92 389.486C1110.92 404.688 1089.43 417.012 1062.93 417.012C1054.29 417.012 1046.18 415.701 1039.18 413.408C1004.78 470.143 915.116 510.598 809.923 510.598C700.317 510.598 607.57 466.676 576.63 406.18C573.1 406.964 569.42 407.378 565.638 407.378C539.137 407.378 517.653 387.044 517.653 361.961C517.653 344.903 527.589 330.041 542.281 322.278C540.458 317.478 539.464 312.303 539.464 306.909C539.464 281.826 560.948 261.492 587.449 261.492C587.713 261.492 587.976 261.494 588.239 261.498C592.339 240.355 611.91 224.333 635.434 224.333C644.135 224.333 652.296 226.525 659.333 230.358C658.916 227.95 658.699 225.477 658.699 222.957C658.699 197.874 680.182 177.54 706.684 177.54C716.97 177.54 726.5 180.603 734.311 185.818C740.372 181.772 747.467 179.021 755.147 177.991Z"/>
</mask>
<path fill-rule="evenodd" clip-rule="evenodd" d="M755.147 177.991C758.451 151.284 778.462 130.746 802.653 130.746C818.661 130.746 832.838 139.739 841.555 153.562C850.228 145.414 862.172 140.38 875.357 140.38C882.351 140.38 888.995 141.796 894.987 144.342C900.979 141.796 907.624 140.38 914.617 140.38C938.648 140.38 958.553 157.1 962.055 178.919C962.237 178.917 962.42 178.916 962.602 178.916C989.103 178.916 1010.59 199.25 1010.59 224.333C1010.59 226.359 1010.45 228.354 1010.18 230.309C1018.85 221.513 1030.82 216.075 1044.03 216.075C1070.53 216.075 1092.02 237.95 1092.02 264.933C1092.02 269.98 1091.26 274.849 1089.87 279.429C1090.58 279.399 1091.3 279.384 1092.02 279.384C1118.52 279.384 1140 299.718 1140 324.801C1140 339.963 1132.15 353.39 1120.09 361.639C1118.37 369.417 1114.56 376.465 1109.23 382.227C1110.33 384.54 1110.92 386.973 1110.92 389.486C1110.92 404.688 1089.43 417.012 1062.93 417.012C1054.29 417.012 1046.18 415.701 1039.18 413.408C1004.78 470.143 915.116 510.598 809.923 510.598C700.317 510.598 607.57 466.676 576.63 406.18C573.1 406.964 569.42 407.378 565.638 407.378C539.137 407.378 517.653 387.044 517.653 361.961C517.653 344.903 527.589 330.041 542.281 322.278C540.458 317.478 539.464 312.303 539.464 306.909C539.464 281.826 560.948 261.492 587.449 261.492C587.713 261.492 587.976 261.494 588.239 261.498C592.339 240.355 611.91 224.333 635.434 224.333C644.135 224.333 652.296 226.525 659.333 230.358C658.916 227.95 658.699 225.477 658.699 222.957C658.699 197.874 680.182 177.54 706.684 177.54C716.97 177.54 726.5 180.603 734.311 185.818C740.372 181.772 747.467 179.021 755.147 177.991Z" fill="#8F9DD6"/>
<path d="M755.147 177.991L758.124 178.359L757.84 180.657L755.546 180.964L755.147 177.991ZM841.555 153.562L843.609 155.748L840.958 158.239L839.018 155.162L841.555 153.562ZM894.987 144.342L896.16 147.103L894.987 147.602L893.814 147.103L894.987 144.342ZM962.055 178.919L962.087 181.919L959.503 181.946L959.093 179.394L962.055 178.919ZM1010.18 230.309L1012.31 232.416L1005.96 238.855L1007.2 229.897L1010.18 230.309ZM1089.87 279.429L1089.99 282.426L1085.76 282.602L1087 278.554L1089.87 279.429ZM1120.09 361.639L1117.16 360.994L1117.41 359.834L1118.39 359.163L1120.09 361.639ZM1109.23 382.227L1106.52 383.515L1105.65 381.681L1107.03 380.19L1109.23 382.227ZM1039.18 413.408L1036.61 411.852L1037.85 409.816L1040.11 410.557L1039.18 413.408ZM576.63 406.18L575.981 403.252L578.245 402.749L579.301 404.814L576.63 406.18ZM542.281 322.278L545.086 321.212L546.027 323.691L543.683 324.93L542.281 322.278ZM588.239 261.498L591.184 262.069L590.706 264.536L588.193 264.498L588.239 261.498ZM659.333 230.358L662.289 229.846L663.348 235.961L657.898 232.993L659.333 230.358ZM734.311 185.818L735.977 188.313L734.311 189.425L732.645 188.313L734.311 185.818ZM802.653 133.746C780.303 133.746 761.286 152.807 758.124 178.359L752.17 177.623C755.617 149.761 776.621 127.746 802.653 127.746V133.746ZM839.018 155.162C830.76 142.068 817.473 133.746 802.653 133.746V127.746C819.849 127.746 834.916 137.41 844.093 151.961L839.018 155.162ZM875.357 143.38C862.943 143.38 851.732 148.117 843.609 155.748L839.501 151.375C848.725 142.71 861.401 137.38 875.357 137.38V143.38ZM893.814 147.103C888.189 144.713 881.944 143.38 875.357 143.38V137.38C882.758 137.38 889.801 138.879 896.16 141.581L893.814 147.103ZM914.617 143.38C908.031 143.38 901.785 144.713 896.16 147.103L893.814 141.581C900.173 138.879 907.216 137.38 914.617 137.38V143.38ZM959.093 179.394C955.84 159.126 937.274 143.38 914.617 143.38V137.38C940.022 137.38 961.266 155.074 965.017 178.444L959.093 179.394ZM962.602 181.916C962.43 181.916 962.258 181.917 962.087 181.919L962.024 175.919C962.216 175.917 962.409 175.916 962.602 175.916V181.916ZM1007.59 224.333C1007.59 201.06 987.604 181.916 962.602 181.916V175.916C990.603 175.916 1013.59 197.44 1013.59 224.333H1007.59ZM1007.2 229.897C1007.46 228.077 1007.59 226.22 1007.59 224.333H1013.59C1013.59 226.498 1013.44 228.63 1013.15 230.722L1007.2 229.897ZM1044.03 219.075C1031.66 219.075 1020.45 224.162 1012.31 232.416L1008.04 228.203C1017.25 218.864 1029.97 213.075 1044.03 213.075V219.075ZM1089.02 264.933C1089.02 239.555 1068.82 219.075 1044.03 219.075V213.075C1072.24 213.075 1095.02 236.344 1095.02 264.933H1089.02ZM1087 278.554C1088.31 274.255 1089.02 269.681 1089.02 264.933H1095.02C1095.02 270.279 1094.22 275.442 1092.74 280.303L1087 278.554ZM1092.02 282.384C1091.34 282.384 1090.66 282.398 1089.99 282.426L1089.74 276.431C1090.5 276.4 1091.25 276.384 1092.02 276.384V282.384ZM1137 324.801C1137 301.528 1117.02 282.384 1092.02 282.384V276.384C1120.02 276.384 1143 297.908 1143 324.801H1137ZM1118.39 359.163C1129.71 351.423 1137 338.888 1137 324.801H1143C1143 341.039 1134.59 355.357 1121.78 364.116L1118.39 359.163ZM1107.03 380.19C1112.01 374.799 1115.57 368.226 1117.16 360.994L1123.02 362.284C1121.18 370.608 1117.11 378.131 1111.43 384.264L1107.03 380.19ZM1107.92 389.486C1107.92 387.453 1107.45 385.457 1106.52 383.515L1111.94 380.939C1113.22 383.622 1113.92 386.494 1113.92 389.486H1107.92ZM1062.93 414.012C1075.76 414.012 1087.22 411.024 1095.37 406.347C1103.61 401.623 1107.92 395.552 1107.92 389.486H1113.92C1113.92 398.622 1107.49 406.313 1098.36 411.552C1089.14 416.838 1076.61 420.012 1062.93 420.012V414.012ZM1040.11 410.557C1046.8 412.745 1054.59 414.012 1062.93 414.012V420.012C1054 420.012 1045.57 418.657 1038.25 416.259L1040.11 410.557ZM809.923 507.598C914.595 507.598 1002.98 467.316 1036.61 411.852L1041.75 414.963C1006.57 472.97 915.636 513.598 809.923 513.598V507.598ZM579.301 404.814C594.365 434.269 624.652 459.979 665.019 478.345C705.346 496.692 755.505 507.598 809.923 507.598V513.598C754.735 513.598 703.717 502.543 662.534 483.806C621.391 465.087 589.835 438.588 573.959 407.546L579.301 404.814ZM565.638 404.378C569.201 404.378 572.663 403.988 575.981 403.252L577.28 409.109C573.538 409.939 569.64 410.378 565.638 410.378V404.378ZM520.653 361.961C520.653 385.234 540.636 404.378 565.638 404.378V410.378C537.637 410.378 514.653 388.854 514.653 361.961H520.653ZM543.683 324.93C529.879 332.224 520.653 346.118 520.653 361.961H514.653C514.653 343.688 525.298 327.858 540.879 319.625L543.683 324.93ZM542.464 306.909C542.464 311.932 543.389 316.746 545.086 321.212L539.477 323.343C537.527 318.21 536.464 312.675 536.464 306.909H542.464ZM587.449 264.492C562.447 264.492 542.464 283.636 542.464 306.909H536.464C536.464 280.016 559.448 258.492 587.449 258.492V264.492ZM588.193 264.498C587.946 264.494 587.698 264.492 587.449 264.492V258.492C587.728 258.492 588.007 258.494 588.285 258.499L588.193 264.498ZM635.434 227.333C613.258 227.333 594.994 242.422 591.184 262.069L585.294 260.927C589.684 238.288 610.562 221.333 635.434 221.333V227.333ZM657.898 232.993C651.296 229.397 643.628 227.333 635.434 227.333V221.333C644.643 221.333 653.296 223.654 660.768 227.724L657.898 232.993ZM661.699 222.957C661.699 225.305 661.901 227.606 662.289 229.846L656.377 230.87C655.931 228.293 655.699 225.65 655.699 222.957H661.699ZM706.684 180.54C681.682 180.54 661.699 199.684 661.699 222.957H655.699C655.699 196.063 678.683 174.54 706.684 174.54V180.54ZM732.645 188.313C725.32 183.423 716.369 180.54 706.684 180.54V174.54C717.571 174.54 727.679 177.783 735.977 183.323L732.645 188.313ZM755.546 180.964C748.323 181.933 741.661 184.518 735.977 188.313L732.645 183.323C739.083 179.025 746.611 176.109 754.748 175.018L755.546 180.964Z" fill="black" mask="url(#path-5-inside-3_1_211)"/>
<mask id="path-7-inside-4_1_211" fill="white">
<path fill-rule="evenodd" clip-rule="evenodd" d="M393.081 261.944C396.385 235.237 416.395 214.699 440.587 214.699C456.594 214.699 470.771 223.692 479.489 237.514C488.162 229.367 500.105 224.333 513.291 224.333C520.284 224.333 526.929 225.749 532.921 228.295C538.913 225.749 545.557 224.333 552.551 224.333C576.582 224.333 596.487 241.052 599.989 262.872C600.171 262.87 600.353 262.869 600.536 262.869C627.037 262.869 648.52 283.203 648.52 308.286C648.52 310.232 648.391 312.149 648.14 314.031C656.815 305.376 668.768 300.028 681.964 300.028C708.465 300.028 729.949 321.595 729.949 348.198C729.949 353.508 729.093 358.617 727.512 363.395C728.319 363.356 729.132 363.337 729.949 363.337C756.45 363.337 777.934 383.671 777.934 408.754C777.934 423.916 770.084 437.343 758.021 445.592C756.308 453.37 752.494 460.418 747.166 466.18C748.265 468.492 748.852 470.926 748.852 473.439C748.852 488.641 727.369 500.965 700.867 500.965C692.226 500.965 684.118 499.654 677.114 497.361C642.712 554.096 553.049 594.551 447.857 594.551C338.25 594.551 245.503 550.629 214.564 490.133C211.034 490.917 207.354 491.331 203.571 491.331C177.07 491.331 155.587 470.997 155.587 445.914C155.587 428.856 165.522 413.994 180.215 406.231C178.391 401.431 177.398 396.256 177.398 390.862C177.398 365.779 198.881 345.445 225.383 345.445C225.646 345.445 225.91 345.447 226.173 345.451C230.273 324.308 249.843 308.286 273.367 308.286C282.069 308.286 290.23 310.478 297.267 314.311C296.85 311.903 296.633 309.43 296.633 306.91C296.633 281.827 318.116 261.493 344.617 261.493C354.903 261.493 364.433 264.556 372.245 269.771C378.305 265.725 385.401 262.974 393.081 261.944Z"/>
</mask>
<path fill-rule="evenodd" clip-rule="evenodd" d="M393.081 261.944C396.385 235.237 416.395 214.699 440.587 214.699C456.594 214.699 470.771 223.692 479.489 237.514C488.162 229.367 500.105 224.333 513.291 224.333C520.284 224.333 526.929 225.749 532.921 228.295C538.913 225.749 545.557 224.333 552.551 224.333C576.582 224.333 596.487 241.052 599.989 262.872C600.171 262.87 600.353 262.869 600.536 262.869C627.037 262.869 648.52 283.203 648.52 308.286C648.52 310.232 648.391 312.149 648.14 314.031C656.815 305.376 668.768 300.028 681.964 300.028C708.465 300.028 729.949 321.595 729.949 348.198C729.949 353.508 729.093 358.617 727.512 363.395C728.319 363.356 729.132 363.337 729.949 363.337C756.45 363.337 777.934 383.671 777.934 408.754C777.934 423.916 770.084 437.343 758.021 445.592C756.308 453.37 752.494 460.418 747.166 466.18C748.265 468.492 748.852 470.926 748.852 473.439C748.852 488.641 727.369 500.965 700.867 500.965C692.226 500.965 684.118 499.654 677.114 497.361C642.712 554.096 553.049 594.551 447.857 594.551C338.25 594.551 245.503 550.629 214.564 490.133C211.034 490.917 207.354 491.331 203.571 491.331C177.07 491.331 155.587 470.997 155.587 445.914C155.587 428.856 165.522 413.994 180.215 406.231C178.391 401.431 177.398 396.256 177.398 390.862C177.398 365.779 198.881 345.445 225.383 345.445C225.646 345.445 225.91 345.447 226.173 345.451C230.273 324.308 249.843 308.286 273.367 308.286C282.069 308.286 290.23 310.478 297.267 314.311C296.85 311.903 296.633 309.43 296.633 306.91C296.633 281.827 318.116 261.493 344.617 261.493C354.903 261.493 364.433 264.556 372.245 269.771C378.305 265.725 385.401 262.974 393.081 261.944Z" fill="#8F9DD6"/>
<path d="M393.081 261.944L396.058 262.312L395.774 264.61L393.479 264.917L393.081 261.944ZM479.489 237.514L481.543 239.701L478.892 242.191L476.951 239.115L479.489 237.514ZM532.921 228.295L534.094 231.056L532.921 231.554L531.748 231.056L532.921 228.295ZM599.989 262.872L600.021 265.871L597.436 265.899L597.027 263.347L599.989 262.872ZM648.14 314.031L650.259 316.154L643.997 322.401L645.166 313.634L648.14 314.031ZM727.512 363.395L727.654 366.391L723.292 366.598L724.664 362.452L727.512 363.395ZM758.021 445.592L755.091 444.947L755.346 443.787L756.327 443.116L758.021 445.592ZM747.166 466.18L744.456 467.468L743.584 465.634L744.963 464.143L747.166 466.18ZM677.114 497.361L674.549 495.805L675.784 493.769L678.047 494.51L677.114 497.361ZM214.564 490.133L213.914 487.205L216.179 486.702L217.235 488.767L214.564 490.133ZM180.215 406.231L183.019 405.165L183.961 407.644L181.616 408.883L180.215 406.231ZM226.173 345.451L229.118 346.022L228.639 348.489L226.127 348.451L226.173 345.451ZM297.267 314.311L300.223 313.799L301.282 319.914L295.832 316.946L297.267 314.311ZM372.245 269.771L373.911 272.266L372.245 273.378L370.579 272.266L372.245 269.771ZM440.587 217.699C418.236 217.699 399.22 236.76 396.058 262.312L390.103 261.576C393.551 233.714 414.554 211.699 440.587 211.699V217.699ZM476.951 239.115C468.693 226.021 455.406 217.699 440.587 217.699V211.699C457.783 211.699 472.85 221.363 482.026 235.914L476.951 239.115ZM513.291 227.333C500.876 227.333 489.665 232.07 481.543 239.701L477.435 235.328C486.658 226.663 499.334 221.333 513.291 221.333V227.333ZM531.748 231.056C526.123 228.666 519.877 227.333 513.291 227.333V221.333C520.692 221.333 527.735 222.832 534.094 225.534L531.748 231.056ZM552.551 227.333C545.965 227.333 539.719 228.666 534.094 231.056L531.748 225.534C538.107 222.832 545.15 221.333 552.551 221.333V227.333ZM597.027 263.347C593.773 243.078 575.208 227.333 552.551 227.333V221.333C577.956 221.333 599.2 239.026 602.951 262.396L597.027 263.347ZM600.536 265.869C600.364 265.869 600.192 265.87 600.021 265.871L599.957 259.872C600.15 259.87 600.343 259.869 600.536 259.869V265.869ZM645.52 308.286C645.52 285.013 625.538 265.869 600.536 265.869V259.869C628.536 259.869 651.52 281.392 651.52 308.286H645.52ZM645.166 313.634C645.4 311.884 645.52 310.099 645.52 308.286H651.52C651.52 310.365 651.382 312.415 651.114 314.427L645.166 313.634ZM681.964 303.028C669.595 303.028 658.396 308.037 650.259 316.154L646.021 311.907C655.235 302.715 667.94 297.028 681.964 297.028V303.028ZM726.949 348.198C726.949 323.241 706.798 303.028 681.964 303.028V297.028C710.133 297.028 732.949 319.949 732.949 348.198H726.949ZM724.664 362.452C726.146 357.975 726.949 353.184 726.949 348.198H732.949C732.949 353.832 732.04 359.26 730.36 364.337L724.664 362.452ZM729.949 366.337C729.179 366.337 728.414 366.355 727.654 366.391L727.37 360.398C728.225 360.357 729.084 360.337 729.949 360.337V366.337ZM774.934 408.754C774.934 385.481 754.951 366.337 729.949 366.337V360.337C757.949 360.337 780.934 381.861 780.934 408.754H774.934ZM756.327 443.116C767.645 435.376 774.934 422.841 774.934 408.754H780.934C780.934 424.992 772.522 439.31 759.714 448.069L756.327 443.116ZM744.963 464.143C749.948 458.752 753.499 452.179 755.091 444.947L760.951 446.238C759.118 454.561 755.04 462.084 749.368 468.216L744.963 464.143ZM745.852 473.439C745.852 471.406 745.38 469.41 744.456 467.468L749.875 464.891C751.151 467.575 751.852 470.447 751.852 473.439H745.852ZM700.867 497.965C713.691 497.965 725.153 494.977 733.305 490.3C741.54 485.576 745.852 479.505 745.852 473.439H751.852C751.852 482.575 745.422 490.266 736.29 495.505C727.076 500.791 714.545 503.965 700.867 503.965V497.965ZM678.047 494.51C684.73 496.698 692.521 497.965 700.867 497.965V503.965C691.93 503.965 683.505 502.61 676.18 500.212L678.047 494.51ZM447.857 591.551C552.529 591.551 640.918 551.27 674.549 495.805L679.679 498.916C644.507 556.923 553.57 597.551 447.857 597.551V591.551ZM217.235 488.767C232.299 518.222 262.586 543.932 302.953 562.298C343.28 580.645 393.439 591.551 447.857 591.551V597.551C392.669 597.551 341.651 586.496 300.468 567.759C259.324 549.04 227.769 522.541 211.893 491.499L217.235 488.767ZM203.571 488.331C207.134 488.331 210.597 487.941 213.914 487.205L215.214 493.062C211.471 493.892 207.573 494.331 203.571 494.331V488.331ZM158.587 445.914C158.587 469.187 178.57 488.331 203.571 488.331V494.331C175.571 494.331 152.587 472.807 152.587 445.914H158.587ZM181.616 408.883C167.813 416.177 158.587 430.071 158.587 445.914H152.587C152.587 427.641 163.232 411.812 178.813 403.578L181.616 408.883ZM180.398 390.862C180.398 395.885 181.322 400.699 183.019 405.165L177.41 407.296C175.46 402.163 174.398 396.628 174.398 390.862H180.398ZM225.383 348.445C200.381 348.445 180.398 367.589 180.398 390.862H174.398C174.398 363.969 197.382 342.445 225.383 342.445V348.445ZM226.127 348.451C225.879 348.447 225.631 348.445 225.383 348.445V342.445C225.662 342.445 225.94 342.447 226.219 342.452L226.127 348.451ZM273.367 311.286C251.191 311.286 232.928 326.375 229.118 346.022L223.228 344.88C227.618 322.241 248.495 305.286 273.367 305.286V311.286ZM295.832 316.946C289.229 313.35 281.561 311.286 273.367 311.286V305.286C282.577 305.286 291.23 307.607 298.702 311.677L295.832 316.946ZM299.633 306.91C299.633 309.258 299.835 311.559 300.223 313.799L294.311 314.823C293.864 312.246 293.633 309.603 293.633 306.91H299.633ZM344.617 264.493C319.615 264.493 299.633 283.637 299.633 306.91H293.633C293.633 280.016 316.617 258.493 344.617 258.493V264.493ZM370.579 272.266C363.254 267.376 354.302 264.493 344.617 264.493V258.493C355.504 258.493 365.613 261.736 373.911 267.276L370.579 272.266ZM393.479 264.917C386.257 265.886 379.594 268.471 373.911 272.266L370.579 267.276C377.016 262.978 384.544 260.062 392.682 258.971L393.479 264.917Z" fill="black" mask="url(#path-7-inside-4_1_211)"/>
</svg>
