<svg width="66" height="66" viewBox="0 0 66 66" fill="none" xmlns="http://www.w3.org/2000/svg">
<path fill-rule="evenodd" clip-rule="evenodd" d="M23.167 24.0331C23.1428 23.9466 23.1302 23.8564 23.1302 23.7649C23.1302 23.577 23.1389 23.3728 23.1501 23.1586C23.2348 21.3995 23.3917 18.1266 18.745 11.5495C18.6695 11.4426 18.6159 11.322 18.587 11.1944C18.5582 11.0668 18.5548 10.9348 18.577 10.8059C18.5992 10.677 18.6466 10.5538 18.7164 10.4432C18.7863 10.3326 18.8772 10.2368 18.9841 10.1614C19.0909 10.0859 19.2116 10.0322 19.3392 10.0034C19.4668 9.9746 19.5988 9.97119 19.7277 9.99339C19.8566 10.0156 19.9799 10.063 20.0905 10.1328C20.2011 10.2026 20.2969 10.2936 20.3723 10.4004C25.4124 17.534 25.2284 21.3943 25.1399 23.2504L25.1398 23.2533C25.1298 23.4525 25.1224 23.6267 25.1224 23.7649C25.1224 23.931 25.0809 24.0927 25.0037 24.2364C26.6644 24.5393 29.7343 24.3193 31.9517 23.0043C32.1486 22.9056 32.3756 22.8852 32.587 22.947C32.7984 23.0089 32.9785 23.1485 33.0912 23.3378C33.2038 23.5271 33.2406 23.752 33.1941 23.9672C33.1476 24.1825 33.0214 24.3722 32.8407 24.4982C30.998 25.6 28.5538 26.1067 26.5019 26.1067C25.1709 26.1067 24.0117 25.8938 23.2771 25.4842C23.075 25.3718 22.9259 25.1837 22.8625 24.9613C22.7991 24.7389 22.8267 24.5005 22.9391 24.2984C22.9969 24.1945 23.0748 24.1046 23.167 24.0331Z" fill="#E5B632"/>
<path d="M36.4277 16.2429C34.2302 16.2429 28.9572 15.1038 28.9572 12.2865C28.9572 12.0389 29.0556 11.8014 29.2307 11.6263C29.4058 11.4512 29.6434 11.3528 29.891 11.3528C30.1387 11.3528 30.3762 11.4512 30.5513 11.6263C30.7265 11.8014 30.8248 12.0389 30.8248 12.2865C30.8248 13.0795 33.955 14.3755 36.4277 14.3755C36.6754 14.3755 36.9129 14.4739 37.088 14.649C37.2632 14.8241 37.3616 15.0616 37.3616 15.3092C37.3616 15.5569 37.2632 15.7944 37.088 15.9695C36.9129 16.1446 36.6754 16.2429 36.4277 16.2429Z" fill="#F54A39"/>
<path d="M39.8742 22.0643C39.685 22.0647 39.4996 22.0111 39.3397 21.9099C39.1799 21.8087 39.0521 21.664 38.9715 21.4929C37.3802 18.1141 38.0999 14.3083 39.1246 10.6979C39.1964 10.4437 39.3663 10.2284 39.5969 10.0994C39.8275 9.97042 40.0999 9.93829 40.3542 10.0101C40.6084 10.0819 40.8237 10.2518 40.9528 10.4823C41.0818 10.7129 41.1139 10.9853 41.0421 11.2395C40.1269 14.4764 39.462 17.8577 40.7744 20.6439C40.8459 20.7956 40.8779 20.9629 40.8675 21.1303C40.857 21.2977 40.8045 21.4598 40.7147 21.6015C40.6249 21.7431 40.5008 21.8599 40.3539 21.9408C40.2069 22.0217 40.0419 22.0642 39.8742 22.0643Z" fill="#E5B632"/>
<path d="M27.117 13.204C25.5575 13.2169 23.9994 13.1091 22.4566 12.8816C19.7772 12.4533 18.4225 11.6503 18.298 10.4278C18.279 10.184 18.3102 9.93889 18.3897 9.70763C18.4691 9.47638 18.5951 9.26386 18.7599 9.08321C20.264 7.30293 25.6079 6.32316 29.7317 6.02437C32.6788 5.81148 35.4877 5.88369 37.6392 6.22729C40.3187 6.65556 41.6783 7.45855 41.7966 8.68109C41.8154 8.92506 41.7839 9.17029 41.704 9.40158C41.6241 9.63286 41.4976 9.84527 41.3322 10.0256C39.8306 11.8134 34.4842 12.7869 30.3642 13.0845C29.2548 13.1642 28.1616 13.204 27.117 13.204ZM20.4147 10.2323C20.7558 10.439 21.6037 10.7701 23.3145 10.993C25.2431 11.242 27.6972 11.2805 30.226 11.0975C35.7268 10.7004 38.9254 9.53139 39.6887 8.87655C39.3463 8.67113 38.4984 8.33873 36.7889 8.11713C34.8577 7.86689 32.4036 7.82955 29.8774 8.01131C24.3753 8.40969 21.1767 9.5787 20.4147 10.2323Z" fill="#F54A39"/>
<path fill-rule="evenodd" clip-rule="evenodd" d="M24.1785 33.1705L24.199 33.1597C30.2479 30.5262 34.6209 28.1585 37.8185 26.4229C40.0134 25.2324 42.1063 24.1025 42.8913 23.9797C42.9806 24.0034 43.0734 24.0156 43.1674 24.0152H43.1774C43.1815 24.0151 43.1856 24.0151 43.1899 24.0151C43.2425 24.0291 43.2959 24.039 43.3497 24.0447C43.4195 24.0803 43.4846 24.158 43.5161 24.3264C43.5559 24.5405 43.5061 24.9003 43.2073 25.0124C42.9749 25.0994 42.7804 25.2653 42.658 25.4812C42.5355 25.697 42.4928 25.949 42.5373 26.1931C42.5818 26.4372 42.7107 26.6579 42.9014 26.8167C43.0922 26.9754 43.3326 27.0621 43.5808 27.0616C43.7071 27.0613 43.8323 27.0386 43.9506 26.9943C45.1509 26.5437 45.8456 25.2589 45.5966 23.9392C45.4024 22.8917 44.6634 22.1412 43.6897 21.9478C42.4048 21.5342 40.695 22.4566 36.81 24.563C33.6325 26.2847 29.2822 28.6377 23.2821 31.2521C23.2434 31.2688 23.206 31.2878 23.1699 31.3088C19.6715 33.0496 17.5449 32.7072 16.7192 31.8086C16.129 31.1674 16.0979 30.1391 16.642 29.2489C17.4687 27.8944 19.6614 26.8076 23.3381 27.821C23.6077 27.8923 23.8946 27.8544 24.1364 27.7154C24.3781 27.5764 24.5553 27.3476 24.6293 27.0787C24.7033 26.8099 24.6681 26.5227 24.5315 26.2796C24.3949 26.0365 24.1678 25.8571 23.8996 25.7805C19.0911 24.4546 16.0643 26.1328 14.8354 28.1459C13.7907 29.849 13.9252 31.897 15.1603 33.2403C15.6671 33.7905 16.7976 34.672 18.8433 34.672C20.1943 34.672 21.9449 34.2873 24.1785 33.1705Z" fill="#028F4D"/>
<path fill-rule="evenodd" clip-rule="evenodd" d="M20.2905 42.1989C21.2599 41.0872 22.301 38.5994 22.0669 35.2073C22.0504 34.9762 22.1264 34.748 22.2781 34.5728C22.4299 34.3977 22.645 34.2901 22.8762 34.2736C23.1073 34.2571 23.3356 34.3331 23.5107 34.4848C23.6858 34.6366 23.7935 34.8517 23.81 35.0828C24.0363 38.3545 23.2178 40.9228 22.216 42.5129C22.9158 42.8165 23.8629 43.042 24.7936 42.8102C25.018 42.7546 25.2553 42.7904 25.4533 42.9097C25.6513 43.029 25.7938 43.222 25.8495 43.4464C25.9051 43.6707 25.8693 43.908 25.75 44.106C25.6307 44.304 25.4376 44.4465 25.2132 44.5021C24.8176 44.599 24.4116 44.6475 24.0042 44.6465C22.7248 44.6279 21.4796 44.2306 20.4259 43.5049C20.237 43.3715 20.1088 43.1686 20.0696 42.9407C20.0304 42.7128 20.0833 42.4787 20.2167 42.2898C20.2394 42.2577 20.264 42.2274 20.2905 42.1989Z" fill="#F54A39"/>
<path fill-rule="evenodd" clip-rule="evenodd" d="M37.809 45.8069C37.8482 45.7713 37.8905 45.7389 37.9356 45.7103C40.3748 44.1566 42.0021 41.1425 42.2935 37.6467C42.606 33.8521 41.3074 30.3513 38.7338 28.0419C38.6379 27.9615 38.5592 27.8626 38.5023 27.7511C38.4454 27.6397 38.4115 27.5179 38.4025 27.3931C38.3936 27.2683 38.4099 27.143 38.4504 27.0246C38.4909 26.9062 38.5548 26.7971 38.6383 26.7039C38.7217 26.6106 38.8231 26.5351 38.9363 26.4818C39.0496 26.4286 39.1724 26.3986 39.2974 26.3937C39.4225 26.3888 39.5472 26.409 39.6643 26.4533C39.7814 26.4976 39.8883 26.5649 39.9788 26.6513C42.992 29.3541 44.5135 33.4176 44.1536 37.7998C43.8597 41.3761 42.3227 44.5448 39.9712 46.5274C39.9371 46.5653 39.8997 46.6006 39.8593 46.6328C37.3504 48.6309 34.3423 49.4899 31.5023 49.4899C28.7979 49.4899 26.2455 48.7118 24.4189 47.3997C24.2178 47.255 24.0824 47.0365 24.0425 46.792C24.0026 46.5476 24.0614 46.2973 24.206 46.0962C24.3507 45.8951 24.5693 45.7597 24.8137 45.7198C25.0582 45.6799 25.3085 45.7387 25.5096 45.8833C27.0274 46.9751 29.2785 47.6262 31.5359 47.6262H31.5732C33.7922 47.6387 35.958 47.0021 37.809 45.8069Z" fill="#F54A39"/>
<path d="M26.6389 37.7221C27.3224 37.7221 27.8765 37.1681 27.8765 36.4846C27.8765 35.8012 27.3224 35.2471 26.6389 35.2471C25.9553 35.2471 25.4012 35.8012 25.4012 36.4846C25.4012 37.1681 25.9553 37.7221 26.6389 37.7221Z" fill="#3D2F90"/>
<path d="M17.6829 56.227C17.4188 56.2334 17.1629 56.1347 16.9715 55.9525C16.7801 55.7702 16.669 55.5195 16.6626 55.2553C16.6561 54.9912 16.7549 54.7353 16.9372 54.544C17.1194 54.3526 17.3702 54.2415 17.6344 54.2351C20.7185 54.082 25.4125 51.8162 26.7671 49.828C26.8388 49.7156 26.9323 49.6187 27.0422 49.5431C27.152 49.4675 27.2758 49.4147 27.4064 49.3879C27.537 49.361 27.6717 49.3607 27.8024 49.3869C27.9332 49.413 28.0573 49.4651 28.1675 49.5402C28.2778 49.6152 28.3718 49.7116 28.444 49.8236C28.5163 49.9356 28.5654 50.061 28.5883 50.1924C28.6112 50.3237 28.6075 50.4583 28.5774 50.5882C28.5473 50.718 28.4915 50.8405 28.4131 50.9484C26.726 53.4259 21.4406 56.0403 17.7327 56.2258L17.6829 56.227Z" fill="#465DBB"/>
<path d="M51.6889 52.9752H51.639C47.9312 52.7885 42.647 50.1753 40.9586 47.6979C40.81 47.4794 40.7543 47.211 40.8037 46.9514C40.8531 46.6919 41.0035 46.4627 41.222 46.3141C41.4404 46.1655 41.7089 46.1098 41.9685 46.1592C42.228 46.2085 42.4573 46.359 42.6059 46.5774C43.9593 48.5693 48.6546 50.8314 51.7387 50.9858C51.8695 50.989 51.9983 51.018 52.1179 51.0711C52.2375 51.1242 52.3455 51.2003 52.4357 51.2951C52.5259 51.3899 52.5965 51.5015 52.6435 51.6236C52.6906 51.7457 52.7131 51.8758 52.7098 52.0066C52.7066 52.1374 52.6776 52.2663 52.6245 52.3859C52.5714 52.5055 52.4953 52.6134 52.4005 52.7036C52.3057 52.7938 52.194 52.8644 52.0719 52.9114C51.9498 52.9584 51.8197 52.981 51.6889 52.9777V52.9752Z" fill="#465DBB"/>
<path fill-rule="evenodd" clip-rule="evenodd" d="M28.6121 61.308C28.772 61.4245 28.9648 61.4872 29.1627 61.487C29.3573 61.4868 29.5471 61.4259 29.7055 61.3127C32.4293 59.3635 34.1256 57.3544 35.0185 54.9701C36.7624 56.8394 39.1074 58.047 42.3843 58.8004C42.4533 58.8162 42.5239 58.8241 42.5947 58.824C42.8241 58.8238 43.0454 58.7392 43.2163 58.5862C43.3873 58.4333 43.496 58.2229 43.5217 57.9949C43.5474 57.767 43.4883 57.5376 43.3557 57.3505C43.2231 57.1633 43.0262 57.0316 42.8026 56.9803C39.2447 56.1629 37.0452 54.8409 35.4852 52.573C35.4618 52.5168 35.4327 52.4626 35.3982 52.4113C35.2599 52.2058 35.0455 52.0636 34.8023 52.016C34.5591 51.9685 34.307 52.0195 34.1014 52.1578C33.9494 52.26 33.8321 52.4038 33.762 52.57C33.7329 52.635 33.7112 52.7034 33.6975 52.7737C33.6921 52.8016 33.688 52.8298 33.6851 52.858C33.127 55.5767 31.606 57.6562 28.6186 59.7939C28.4576 59.909 28.3374 60.0722 28.2753 60.26C28.2131 60.4479 28.2123 60.6506 28.2728 60.8389C28.3333 61.0273 28.4521 61.1915 28.6121 61.308Z" fill="#F54A39"/>
<path d="M34.7232 58.9971C33.7502 58.9934 32.7904 58.7718 31.9143 58.3484C31.6907 58.2416 31.5188 58.0504 31.4362 57.8168C31.3537 57.5832 31.3673 57.3264 31.4742 57.1029C31.581 56.8793 31.7722 56.7074 32.0059 56.6249C32.2395 56.5423 32.4963 56.556 32.7199 56.6628C34.4904 57.5093 36.5 57.1695 37.9617 55.7727C38.0508 55.688 38.1557 55.6217 38.2705 55.5775C38.3852 55.5334 38.5075 55.5123 38.6304 55.5154C38.7533 55.5185 38.8744 55.5458 38.9868 55.5957C39.0991 55.6456 39.2005 55.7172 39.2852 55.8063C39.3699 55.8954 39.4363 56.0003 39.4804 56.115C39.5246 56.2297 39.5457 56.352 39.5425 56.4749C39.5394 56.5978 39.5121 56.7189 39.4622 56.8312C39.4123 56.9435 39.3407 57.045 39.2516 57.1296C37.9605 58.3609 36.3518 58.9971 34.7232 58.9971Z" fill="#E5B632"/>
<path d="M32.8183 65.9999C26.3274 65.9987 19.9826 64.0733 14.586 60.4672C9.18929 56.861 4.98305 51.736 2.49895 45.74C0.01485 39.7439 -0.635582 33.1461 0.629876 26.7805C1.89533 20.415 5.01987 14.5674 9.6085 9.97712C12.6384 6.85162 16.2598 4.35999 20.262 2.6473C24.2641 0.934598 28.567 0.0350446 32.9202 0.00100371C37.2734 -0.0330372 41.5898 0.799115 45.6183 2.44901C49.6467 4.09892 53.3067 6.5336 56.3851 9.61133C59.4635 12.6891 61.8988 16.3484 63.5494 20.3762C65.1999 24.404 66.0326 28.7199 65.999 33.0725C65.9654 37.4252 65.0662 41.7277 63.3538 45.7296C61.6413 49.7315 59.1498 53.3528 56.0243 56.3827C52.9842 59.4402 49.3679 61.8645 45.3846 63.5153C41.4013 65.1661 37.1301 66.0106 32.8183 65.9999ZM32.8183 2.47629C15.8863 2.47629 2.1118 16.2492 2.1118 33.1793C2.1118 50.1093 15.8863 63.8835 32.8183 63.8835C49.7503 63.8835 63.526 50.1093 63.526 33.1793C63.526 16.2492 49.7503 2.47629 32.8183 2.47629Z" fill="#652699"/>
<path fill-rule="evenodd" clip-rule="evenodd" d="M34.4994 53.3777C34.338 53.3948 34.1662 53.3948 33.9861 53.3948H33.9861C31.8869 53.3948 28.702 52.4573 26.9688 50.921C26.7898 50.7551 26.6829 50.5257 26.6709 50.2819C26.659 50.0381 26.743 49.7994 26.905 49.6167C27.0669 49.4341 27.2939 49.3222 27.5374 49.3049C27.7809 49.2876 28.0215 49.3663 28.2077 49.5242C29.7879 50.9244 32.8793 51.6352 34.3319 51.5175C38.3221 50.9547 40.1416 48.0146 40.8413 46.8841L40.8516 46.8675C40.9088 46.7741 40.9574 46.6957 40.9985 46.6322C41.0639 46.5271 41.1496 46.436 41.2506 46.3643C41.3515 46.2926 41.4658 46.2417 41.5866 46.2145C41.7074 46.1874 41.8325 46.1846 41.9544 46.2062C42.0763 46.2278 42.1928 46.2735 42.2969 46.3405C42.401 46.4076 42.4907 46.4946 42.5609 46.5967C42.631 46.6987 42.6802 46.8137 42.7055 46.9349C42.7307 47.0562 42.7317 47.1812 42.7081 47.3028C42.6846 47.4243 42.6372 47.54 42.5685 47.6431C42.5433 47.6819 42.5141 47.7299 42.4819 47.7827C42.4697 47.8028 42.457 47.8235 42.444 47.8448L42.4432 47.8462C41.7052 49.0466 39.4626 52.6941 34.5626 53.3711C34.5416 53.374 34.5205 53.3762 34.4994 53.3777Z" fill="#3D2F90"/>
<path fill-rule="evenodd" clip-rule="evenodd" d="M23.363 19.5321C24.2171 19.7309 25.0922 19.8249 25.969 19.8122C26.3538 19.8122 26.7556 19.7975 27.1676 19.766C27.3387 20.1195 27.4786 20.6524 27.4681 21.5464C27.4658 21.761 27.5486 21.9676 27.6985 22.1212C27.8483 22.2748 28.0529 22.3626 28.2675 22.3656H28.2774C28.4906 22.3656 28.6951 22.2816 28.8466 22.1317C28.9982 21.9818 29.0844 21.7782 29.0867 21.5651C29.0972 20.6961 28.9844 20.0458 28.8231 19.5508C30.123 19.3092 31.433 18.8851 32.5568 18.2174C32.6717 18.152 32.7724 18.0643 32.8531 17.9594C32.9337 17.8546 32.9927 17.7348 33.0266 17.607C33.0604 17.4791 33.0685 17.3458 33.0502 17.2149C33.032 17.0839 32.9879 16.9578 32.9204 16.8441C32.8529 16.7303 32.7635 16.6312 32.6573 16.5524C32.5511 16.4735 32.4303 16.4167 32.3018 16.385C32.1734 16.3534 32.04 16.3477 31.9093 16.3682C31.7787 16.3887 31.6534 16.435 31.5408 16.5044C28.9996 18.0108 25.2294 17.9622 23.8686 17.6049C23.742 17.5717 23.6101 17.5638 23.4805 17.5815C23.3509 17.5993 23.226 17.6424 23.1131 17.7084C23.0001 17.7744 22.9013 17.8621 22.8222 17.9663C22.7431 18.0705 22.6853 18.1892 22.6521 18.3158C22.6189 18.4423 22.611 18.5742 22.6287 18.7038C22.6465 18.8334 22.6896 18.9582 22.7556 19.0712C22.8217 19.1841 22.9093 19.2829 23.0135 19.362C23.1177 19.4411 23.2365 19.4989 23.363 19.5321Z" fill="#028F4D"/>
</svg>
