<svg width="648" height="629" viewBox="0 0 648 629" fill="none" xmlns="http://www.w3.org/2000/svg">
<path fill-rule="evenodd" clip-rule="evenodd" d="M631.864 236.416L683.952 210.661L515.471 113.389L463.383 139.143L457.75 148.9L366.11 307.624L534.591 404.897L627.402 244.143L631.864 236.416Z" fill="#F56355"/>
<path d="M683.952 210.661L684.395 211.558L686.07 210.729L684.452 209.795L683.952 210.661ZM631.864 236.416L631.42 235.52L631.149 235.654L630.998 235.916L631.864 236.416ZM515.471 113.389L515.971 112.523L515.507 112.255L515.028 112.492L515.471 113.389ZM463.383 139.143L462.939 138.247L462.668 138.381L462.517 138.643L463.383 139.143ZM457.75 148.9L456.884 148.4L457.75 148.9ZM366.11 307.624L365.244 307.124L364.744 307.991L365.61 308.491L366.11 307.624ZM534.591 404.897L534.091 405.763L534.957 406.263L535.457 405.397L534.591 404.897ZM627.402 244.143L626.536 243.643L627.402 244.143ZM683.509 209.765L631.42 235.52L632.307 237.312L684.395 211.558L683.509 209.765ZM514.971 114.255L683.452 211.527L684.452 209.795L515.971 112.523L514.971 114.255ZM463.826 140.04L515.914 114.285L515.028 112.492L462.939 138.247L463.826 140.04ZM458.616 149.4L464.249 139.643L462.517 138.643L456.884 148.4L458.616 149.4ZM366.976 308.124L458.616 149.4L456.884 148.4L365.244 307.124L366.976 308.124ZM535.091 404.031L366.61 306.758L365.61 308.491L534.091 405.763L535.091 404.031ZM626.536 243.643L533.725 404.397L535.457 405.397L628.268 244.643L626.536 243.643ZM630.998 235.916L626.536 243.643L628.268 244.643L632.73 236.916L630.998 235.916Z" fill="black"/>
<path d="M586.679 379.142L534.591 404.897L366.11 307.624L418.198 281.87L586.679 379.142Z" fill="#652699" stroke="black" stroke-width="2"/>
<rect x="418.198" y="281.87" width="194.545" height="194.545" transform="rotate(-60 418.198 281.87)" fill="#F54A39" stroke="black" stroke-width="2"/>
<path fill-rule="evenodd" clip-rule="evenodd" d="M534.591 404.897L586.679 379.142L418.198 281.87L366.11 307.625L268.838 476.106L437.319 573.378L534.591 404.897Z" fill="#9154C5"/>
<path d="M586.679 379.142L587.122 380.039L588.797 379.21L587.179 378.276L586.679 379.142ZM534.591 404.897L534.148 404.001L533.876 404.135L533.725 404.397L534.591 404.897ZM418.198 281.87L418.698 281.004L418.235 280.736L417.755 280.973L418.198 281.87ZM366.11 307.625L365.667 306.728L365.395 306.862L365.244 307.125L366.11 307.625ZM268.838 476.106L267.972 475.606L267.472 476.472L268.338 476.972L268.838 476.106ZM437.319 573.378L436.819 574.244L437.685 574.744L438.185 573.878L437.319 573.378ZM586.236 378.246L534.148 404.001L535.034 405.793L587.122 380.039L586.236 378.246ZM417.698 282.736L586.179 380.008L587.179 378.276L418.698 281.004L417.698 282.736ZM366.553 308.521L418.642 282.766L417.755 280.973L365.667 306.728L366.553 308.521ZM269.704 476.606L366.976 308.125L365.244 307.125L267.972 475.606L269.704 476.606ZM437.819 572.512L269.338 475.239L268.338 476.972L436.819 574.244L437.819 572.512ZM533.725 404.397L436.453 572.878L438.185 573.878L535.457 405.397L533.725 404.397Z" fill="black"/>
<path d="M489.407 547.623L437.319 573.378L268.838 476.105L320.926 450.351L489.407 547.623Z" fill="#CA3F31" stroke="black" stroke-width="2"/>
<rect x="320.926" y="450.351" width="194.545" height="194.545" transform="rotate(-60 320.926 450.351)" fill="#F54A39" stroke="black" stroke-width="2"/>
<path fill-rule="evenodd" clip-rule="evenodd" d="M197.774 210.102L100.189 379.124L268.524 476.313L365.965 307.54L366.11 307.625L418.199 281.87L249.718 184.597L197.94 210.198L197.774 210.102Z" fill="#F56355"/>
<path d="M100.189 379.124L99.3225 378.624L98.8225 379.49L99.6885 379.99L100.189 379.124ZM197.774 210.102L198.274 209.236L197.408 208.736L196.908 209.602L197.774 210.102ZM268.524 476.313L268.024 477.179L268.89 477.679L269.39 476.813L268.524 476.313ZM365.965 307.54L366.465 306.674L365.599 306.174L365.099 307.04L365.965 307.54ZM366.11 307.625L365.61 308.491L366.074 308.758L366.554 308.521L366.11 307.625ZM418.199 281.87L418.642 282.766L420.317 281.938L418.699 281.004L418.199 281.87ZM249.718 184.597L250.218 183.731L249.754 183.463L249.274 183.701L249.718 184.597ZM197.94 210.198L197.44 211.064L197.904 211.332L198.384 211.095L197.94 210.198ZM101.055 379.624L198.64 210.602L196.908 209.602L99.3225 378.624L101.055 379.624ZM269.024 475.447L100.689 378.258L99.6885 379.99L268.024 477.179L269.024 475.447ZM365.099 307.04L267.658 475.813L269.39 476.813L366.831 308.04L365.099 307.04ZM366.61 306.758L366.465 306.674L365.465 308.406L365.61 308.491L366.61 306.758ZM417.755 280.973L365.667 306.728L366.554 308.521L418.642 282.766L417.755 280.973ZM249.218 185.463L417.699 282.736L418.699 281.004L250.218 183.731L249.218 185.463ZM198.384 211.095L250.161 185.494L249.274 183.701L197.497 209.302L198.384 211.095ZM197.274 210.968L197.44 211.064L198.44 209.332L198.274 209.236L197.274 210.968Z" fill="black"/>
<path fill-rule="evenodd" clip-rule="evenodd" d="M100.585 378.437L3 547.46L171.335 644.648L268.776 475.876L268.922 475.96L321.01 450.205L152.529 352.933L100.752 378.534L100.585 378.437Z" fill="#F56355"/>
<path d="M3 547.46L2.13397 546.96L1.63397 547.826L2.5 548.326L3 547.46ZM100.585 378.437L101.085 377.571L100.219 377.071L99.7191 377.937L100.585 378.437ZM171.335 644.648L170.835 645.514L171.701 646.014L172.201 645.148L171.335 644.648ZM268.776 475.876L269.276 475.01L268.41 474.51L267.91 475.376L268.776 475.876ZM268.922 475.96L268.422 476.826L268.885 477.094L269.365 476.856L268.922 475.96ZM321.01 450.205L321.453 451.102L323.128 450.273L321.51 449.339L321.01 450.205ZM152.529 352.933L153.029 352.067L152.565 351.799L152.086 352.036L152.529 352.933ZM100.752 378.534L100.252 379.4L100.716 379.667L101.195 379.43L100.752 378.534ZM3.86603 547.96L101.451 378.937L99.7191 377.937L2.13397 546.96L3.86603 547.96ZM171.835 643.782L3.5 546.594L2.5 548.326L170.835 645.514L171.835 643.782ZM267.91 475.376L170.469 644.148L172.201 645.148L269.642 476.376L267.91 475.376ZM269.422 475.094L269.276 475.01L268.276 476.742L268.422 476.826L269.422 475.094ZM320.567 449.309L268.478 475.064L269.365 476.856L321.453 451.102L320.567 449.309ZM152.029 353.799L320.51 451.071L321.51 449.339L153.029 352.067L152.029 353.799ZM101.195 379.43L152.972 353.829L152.086 352.036L100.309 377.637L101.195 379.43ZM100.085 379.303L100.252 379.4L101.252 377.667L101.085 377.571L100.085 379.303Z" fill="black"/>
<rect x="152.445" y="353.078" width="194.545" height="194.545" transform="rotate(-60 152.445 353.078)" fill="#F54A39" stroke="black" stroke-width="2"/>
<path d="M223.653 618.832L171.565 644.586L3.08408 547.314L55.1723 521.559L223.653 618.832Z" fill="#CA3F31" stroke="black" stroke-width="2"/>
<rect x="55.1723" y="521.559" width="194.545" height="194.545" transform="rotate(-60 55.1723 521.559)" fill="#F54A39" stroke="black" stroke-width="2"/>
</svg>
