<svg width="224" height="224" viewBox="0 0 224 224" fill="none" xmlns="http://www.w3.org/2000/svg">
<path d="M1.5 8C1.5 4.41015 4.41015 1.5 8 1.5H215.374C218.964 1.5 221.874 4.41015 221.874 8V216C221.874 219.59 218.964 222.5 215.374 222.5H7.99999C4.41014 222.5 1.5 219.59 1.5 216V8Z" fill="#8648BA" stroke="black" stroke-width="3"/>
<path d="M7.11377 18.0162C7.11377 13.598 10.6955 10.0162 15.1138 10.0162H206.837C211.256 10.0162 214.837 13.598 214.837 18.0162V203.252C214.837 207.67 211.256 211.252 206.837 211.252H15.1138C10.6955 211.252 7.11377 207.67 7.11377 203.252V18.0162Z" fill="#2E1145"/>
</svg>
